<svg
                        xmlns="http://www.w3.org/2000/svg" width="28.033" height="30.079" viewBox="0 0 28.033 30.079"
                        class="md:w-[1.2vw]">
                        <path id="Path_100793" data-name="Path 100793"
                            d="M25.765,20.935c-1.817-1.554-3.661-2.5-5.456-.944l-1.072.938c-.784.681-2.242,3.862-7.879-2.622s-2.282-7.484-1.5-8.159l1.078-.939c1.785-1.555,1.112-3.513-.176-5.529L9.987,2.459C8.693.448,7.285-.872,5.495.681l-.967.845A9.08,9.08,0,0,0,.988,7.535c-.646,4.27,1.391,9.16,6.057,14.526s9.223,8.064,13.545,8.017a9.1,9.1,0,0,0,6.44-2.667L28,26.565c1.785-1.552.676-3.132-1.142-4.689Z"
                            transform="translate(-0.872 0)" fill="#282828" opacity="1" />
                    </svg>