<svg xmlns="http://www.w3.org/2000/svg" version="1.0" width="175.000000pt" height="261.000000pt" viewBox="0 0 175.000000 261.000000" preserveAspectRatio="xMidYMid meet">

<g transform="translate(0.000000,261.000000) scale(0.100000,-0.100000)" fill="#282828" stroke="none">
<path d="M812 2493 c-195 -517 -215 -559 -442 -943 -123 -207 -202 -365 -229 -456 -60 -203 9 -489 163 -675 235 -285 615 -349 932 -158 224 135 378 426 361 679 -10 144 -77 300 -298 685 -183 320 -226 410 -340 708 -55 144 -102 263 -103 265 -2 1 -22 -46 -44 -105z m295 -723 c50 -52 93 -147 100 -216 4 -45 14 -73 43 -119 65 -105 98 -169 137 -266 37 -92 37 -97 38 -229 0 -107 -4 -147 -19 -195 l-20 -60 -8 75 c-14 125 -38 240 -58 279 -10 20 -19 34 -20 31 0 -3 -2 -46 -5 -95 -6 -120 -36 -231 -86 -324 -51 -96 -64 -109 -55 -56 36 219 38 245 33 385 -5 130 -31 286 -53 322 -4 5 -20 -4 -38 -20 -55 -52 -176 -125 -176 -107 0 3 27 40 60 81 58 72 99 142 114 192 7 20 4 22 -36 22 -78 0 -114 49 -83 114 26 55 73 66 118 28 9 -8 20 -12 24 -9 14 14 -19 115 -57 175 -22 34 -40 66 -40 69 0 8 43 -30 87 -77z m-397 49 c0 -6 -15 -29 -34 -52 -42 -53 -62 -92 -72 -141 -6 -36 -5 -39 12 -31 10 4 40 10 66 12 44 5 50 3 83 -30 36 -36 43 -64 25 -97 -14 -27 -45 -41 -104 -50 l-51 -6 60 -60 c33 -32 93 -81 133 -107 39 -27 72 -53 72 -59 0 -17 -96 0 -205 37 -72 24 -102 31 -107 22 -23 -37 -43 -161 -43 -267 0 -129 15 -215 57 -339 33 -99 32 -91 14 -91 -20 0 -121 132 -155 203 -33 70 -56 153 -67 241 -7 58 -7 59 -20 33 -21 -38 -41 -138 -55 -261 -14 -130 -28 -127 -53 12 -44 237 6 433 159 631 45 59 53 75 58 128 11 104 52 174 141 238 61 45 86 54 86 34z m120 -679 c24 -24 26 -63 5 -80 -8 -7 -15 -16 -15 -21 0 -22 18 -5 54 51 21 33 42 60 46 60 5 0 16 3 25 7 12 4 1 -27 -39 -104 -42 -81 -56 -120 -56 -151 l0 -42 53 0 c62 0 70 -5 127 -83 23 -31 54 -63 69 -70 38 -18 33 -41 -11 -47 -28 -4 -42 -13 -60 -40 -64 -97 -232 -107 -315 -18 -42 45 -56 128 -31 183 8 18 9 29 2 33 -22 15 -74 96 -74 116 0 17 19 31 84 65 74 38 83 46 70 58 -22 22 -18 69 8 87 29 20 34 20 58 -4z m-250 -701 c-19 -35 19 -57 39 -22 7 13 14 15 30 7 20 -9 20 -10 -12 -71 -32 -63 -40 -70 -66 -54 -10 7 -11 13 -1 30 9 17 9 26 -1 38 -12 13 -16 12 -34 -11 -18 -23 -23 -25 -39 -13 -18 13 -18 16 9 63 42 73 44 75 66 63 16 -8 17 -14 9 -30z m583 8 c-5 -30 -2 -33 43 -55 l47 -23 -23 -16 c-21 -15 -26 -15 -51 0 -32 18 -45 8 -30 -21 10 -20 -2 -42 -24 -42 -11 0 -75 101 -75 118 0 19 32 23 46 5 12 -17 13 -16 14 5 0 22 32 62 49 62 6 0 7 -15 4 -33z m-431 -84 l4 -38 13 33 c7 17 17 32 21 32 22 0 40 -14 40 -30 0 -27 17 -34 25 -10 6 18 45 29 45 13 0 -5 -10 -36 -22 -70 -16 -44 -28 -63 -40 -63 -21 0 -38 29 -39 67 -1 27 -1 27 -17 -10 -14 -31 -22 -37 -42 -35 -24 3 -25 6 -28 76 -3 66 -1 72 17 72 16 0 21 -8 23 -37z m283 7 c0 -10 -10 -15 -27 -15 -14 0 -30 -3 -34 -7 -4 -5 9 -8 29 -8 53 0 67 -9 67 -41 0 -44 -54 -72 -104 -53 -9 3 -16 12 -16 19 0 17 31 28 43 16 11 -11 37 -4 37 10 0 5 -17 9 -38 9 -61 0 -84 43 -39 75 27 19 82 16 82 -5z" style="&#10;    fill: #ff0016;&#10;"/>
<path d="M583 1716 c-51 -55 -67 -93 -79 -185 -6 -44 -17 -67 -60 -125 -72 -96 -141 -235 -160 -326 -17 -78 -15 -240 4 -290 7 -19 10 -11 16 46 12 124 63 274 92 274 7 0 14 -28 18 -72 10 -102 33 -193 69 -263 31 -63 87 -149 92 -143 2 2 -8 46 -21 98 -47 177 -44 365 8 517 l21 62 48 -24 c47 -25 189 -68 197 -61 2 2 -18 19 -45 36 -83 56 -173 152 -173 185 0 3 17 5 38 5 118 0 168 62 95 120 -33 26 -69 25 -112 -1 -27 -16 -36 -18 -42 -7 -20 31 -3 115 36 172 36 53 14 44 -42 -18z" style="&#10;    fill: #ff0016;&#10;"/>
<path d="M703 944 c-18 -8 -33 -17 -33 -20 0 -5 30 -58 45 -82 1 -1 10 0 19 4 12 5 16 19 16 60 0 59 0 59 -47 38z" style="&#10;    fill: #ff0016;&#10;"/>
<path d="M735 764 c-21 -45 -14 -90 21 -127 32 -34 63 -47 115 -47 62 0 106 31 128 92 8 23 5 33 -25 72 l-35 46 -93 0 -94 0 -17 -36z" style="&#10;    fill: #ff0016;&#10;"/>
<path d="M1627 1023 c-12 -11 -8 -23 8 -23 8 0 15 7 15 15 0 16 -12 20 -23 8z"/>
<path d="M1700 982 c-48 -5 -64 -22 -19 -22 31 0 70 15 59 22 -3 2 -21 2 -40 0z"/>
<path d="M0 950 c0 -5 7 -10 15 -10 8 0 15 -7 15 -15 0 -9 -7 -18 -15 -21 -28 -11 -15 -24 25 -24 22 0 40 5 40 10 0 6 -9 10 -20 10 -13 0 -20 7 -20 20 0 13 7 20 20 20 11 0 20 5 20 10 0 6 -18 10 -40 10 -22 0 -40 -4 -40 -10z"/>
<path d="M1650 940 c0 -5 9 -10 20 -10 13 0 20 -7 20 -20 0 -13 -7 -20 -20 -20 -11 0 -20 -4 -20 -10 0 -5 23 -10 50 -10 50 0 70 16 28 22 -30 4 -30 32 0 36 12 2 20 8 17 13 -8 12 -95 12 -95 -1z"/>
<path d="M13 863 c-17 -6 -17 -24 -1 -20 7 1 14 -8 16 -20 2 -13 8 -23 13 -23 5 0 8 8 6 18 -3 26 17 26 25 0 5 -18 6 -15 7 15 1 34 -1 37 -26 36 -16 0 -34 -3 -40 -6z"/>
<path d="M1663 853 c-7 -3 -13 -18 -13 -34 0 -36 38 -56 71 -38 24 12 23 60 -1 67 -13 5 -13 3 -1 -11 18 -22 -1 -47 -30 -40 -26 7 -33 21 -18 39 13 16 10 23 -8 17z"/>
<path d="M32 783 c-36 -5 -44 -23 -9 -24 l22 0 -23 -11 c-12 -6 -22 -14 -22 -18 0 -4 10 -11 23 -15 l22 -7 -25 -7 c-37 -10 -11 -20 35 -12 48 8 55 33 11 41 l-30 5 28 13 c15 7 26 18 24 24 -5 14 -13 16 -56 11z"/>
<path d="M1675 751 c-41 -8 -38 -29 8 -58 l39 -25 -7 32 c-5 24 -3 35 12 45 17 14 17 14 -2 13 -11 0 -33 -3 -50 -7z m15 -31 c0 -5 -2 -10 -4 -10 -3 0 -8 5 -11 10 -3 6 -1 10 4 10 6 0 11 -4 11 -10z"/>
<path d="M32 668 c-15 -15 -15 -51 0 -66 27 -27 88 0 88 39 0 35 -61 54 -88 27z m66 -32 c-2 -13 -12 -22 -26 -24 -29 -4 -42 26 -18 44 24 17 48 6 44 -20z"/>
<path d="M1615 648 c-16 -38 -13 -43 38 -56 38 -11 50 -1 20 16 -14 8 -12 12 15 26 38 20 42 31 8 22 -15 -4 -28 0 -36 9 -19 23 -30 18 -45 -17z m35 -8 c0 -11 -7 -20 -15 -20 -13 0 -14 4 -5 20 6 11 13 20 15 20 3 0 5 -9 5 -20z"/>
<path d="M88 583 c-39 -16 -53 -39 -20 -31 12 3 24 -2 31 -13 12 -21 36 -25 46 -9 8 12 -4 70 -13 69 -4 -1 -24 -8 -44 -16z m42 -28 c0 -8 -4 -15 -9 -15 -5 0 -11 7 -15 15 -3 9 0 15 9 15 8 0 15 -7 15 -15z"/>
<path d="M1580 561 c0 -6 4 -12 10 -16 5 -3 19 -19 30 -35 l21 -30 -31 0 c-23 0 -33 5 -37 20 -3 11 -9 17 -14 14 -5 -3 -6 -17 -3 -31 6 -22 4 -25 -10 -20 -10 4 -16 1 -16 -6 0 -15 69 -51 79 -41 3 4 0 9 -6 11 -23 8 -14 33 11 33 25 0 44 30 32 49 -9 14 4 41 20 41 8 0 14 5 14 10 0 6 -22 10 -50 10 -27 0 -50 -4 -50 -9z m60 -15 c0 -11 -19 -15 -25 -6 -3 5 1 10 9 10 9 0 16 -2 16 -4z"/>
<path d="M128 507 c-40 -24 -51 -42 -18 -32 28 9 38 -21 14 -40 -30 -23 4 -18 42 6 39 23 44 34 13 26 -25 -7 -37 17 -19 38 20 24 8 25 -32 2z"/>
<path d="M168 424 c-21 -13 -38 -26 -38 -29 0 -14 30 -2 60 25 42 35 29 38 -22 4z"/>
<path d="M193 398 c-18 -13 -33 -27 -33 -33 1 -16 29 -49 36 -42 4 4 1 13 -5 21 -10 12 -7 20 21 45 39 36 27 41 -19 9z"/>
<path d="M1476 364 c6 -23 4 -25 -14 -20 -11 4 -23 2 -27 -4 -4 -6 4 -10 17 -10 13 0 34 -7 46 -16 32 -22 39 -11 13 22 -11 15 -21 33 -21 40 0 8 -5 14 -10 14 -6 0 -8 -11 -4 -26z"/>
<path d="M238 331 c-18 -16 -29 -33 -25 -37 4 -4 24 9 45 29 43 44 27 50 -20 8z"/>
<path d="M268 303 c-43 -18 -48 -30 -15 -35 14 -2 23 -11 25 -25 2 -13 7 -23 11 -23 8 0 41 76 41 93 0 10 -20 7 -62 -10z m32 -23 c0 -5 -4 -10 -10 -10 -5 0 -10 5 -10 10 0 6 5 10 10 10 6 0 10 -4 10 -10z"/>
<path d="M1356 274 l-55 -46 25 -34 c30 -39 32 -39 62 -18 30 21 28 39 -2 19 -27 -18 -45 -5 -21 15 22 18 18 32 -5 18 -31 -20 -35 -1 -5 26 35 32 39 32 64 -1 12 -14 24 -23 27 -20 4 3 -3 18 -14 32 -12 15 -18 33 -15 41 8 22 -1 17 -61 -32z"/>
<path d="M386 207 c-9 -23 -16 -46 -16 -50 0 -14 24 -7 47 14 l22 22 -9 -34 c-12 -42 -12 -39 2 -39 6 0 23 10 36 23 23 20 25 21 17 2 -18 -48 -17 -52 16 -64 40 -14 51 -6 15 10 -15 7 -25 17 -23 23 5 12 11 12 40 1 9 -4 17 -3 17 3 0 6 -9 14 -20 17 -32 10 -23 25 13 20 30 -5 30 -4 -11 16 -42 20 -45 20 -63 3 -19 -17 -19 -16 -13 14 7 36 3 38 -32 16 -24 -17 -24 -16 -15 9 6 15 6 29 2 31 -5 3 -16 -14 -25 -37z"/>
<path d="M1280 207 c0 -10 -6 -14 -14 -11 -24 9 -56 -15 -56 -41 0 -44 50 -71 78 -43 15 15 16 38 2 38 -5 0 -10 -7 -10 -16 0 -10 -7 -14 -22 -12 -35 5 -32 49 4 59 22 6 30 3 43 -17 23 -35 39 -29 18 7 -24 41 -43 57 -43 36z"/>
<path d="M1138 149 c-21 -12 -24 -59 -6 -77 15 -15 51 -15 66 0 17 17 15 54 -4 72 -18 18 -32 20 -56 5z m50 -42 c3 -25 0 -28 -20 -25 -17 2 -24 11 -26 31 -3 25 0 28 20 25 17 -2 24 -11 26 -31z"/>
<path d="M573 130 c-24 -61 -24 -66 2 -78 31 -14 35 -15 35 -3 0 5 -9 12 -19 16 -17 5 -18 10 -9 35 12 37 4 65 -9 30z"/>
<path d="M640 96 c-6 -20 -9 -44 -7 -53 4 -15 6 -14 12 5 6 17 13 22 26 19 11 -3 21 -2 24 3 3 4 -4 10 -15 13 -11 3 -20 10 -20 16 0 7 10 9 25 5 15 -4 25 -2 25 5 0 6 -6 11 -14 11 -8 0 -21 3 -29 6 -11 4 -19 -5 -27 -30z"/>
<path d="M1052 121 c-23 -14 -10 -46 21 -49 15 -2 27 -8 27 -14 0 -6 -11 -8 -25 -5 -16 3 -24 0 -22 -7 6 -17 42 -19 56 -2 20 24 6 46 -29 46 -18 0 -29 4 -25 10 3 6 15 10 26 10 11 0 17 5 14 10 -8 12 -25 13 -43 1z"/>
<path d="M712 65 c-12 -25 -18 -45 -12 -45 5 0 11 4 15 10 6 10 36 2 47 -14 15 -22 18 3 7 48 -6 25 -17 46 -23 46 -7 0 -22 -20 -34 -45z m34 -12 c-10 -10 -19 5 -10 18 6 11 8 11 12 0 2 -7 1 -15 -2 -18z"/>
<path d="M800 53 c1 -45 2 -47 15 -28 15 19 15 19 31 -3 20 -28 39 -29 24 -1 -9 15 -8 24 1 35 17 20 -6 44 -42 44 -28 0 -29 -2 -29 -47z m55 17 c-8 -13 -35 -13 -35 0 0 6 9 10 21 10 11 0 17 -4 14 -10z"/>
<path d="M890 50 c0 -53 9 -60 55 -40 18 8 17 9 -7 9 -37 1 -39 31 -2 31 14 0 23 4 20 9 -3 5 -16 7 -27 4 -16 -4 -20 -2 -17 8 2 7 15 16 29 20 20 6 18 7 -13 8 l-38 1 0 -50z"/>
</g>
</svg>