<svg xmlns="http://www.w3.org/2000/svg" version="1.0" width="175.000000pt" height="261.000000pt" viewBox="0 0 175.000000 261.000000" preserveAspectRatio="xMidYMid meet">

<g transform="translate(0.000000,261.000000) scale(0.100000,-0.100000)" fill="#282828" stroke="none">
<path d="M812 2493 c-195 -517 -215 -559 -442 -943 -123 -207 -202 -365 -229 -456 -60 -203 9 -489 163 -675 235 -285 615 -349 932 -158 224 135 378 426 361 679 -10 144 -77 300 -298 685 -183 320 -226 410 -340 708 -55 144 -102 263 -103 265 -2 1 -22 -46 -44 -105z m295 -723 c50 -52 93 -147 100 -216 4 -45 14 -73 43 -119 65 -105 98 -169 137 -266 37 -92 37 -97 38 -229 0 -107 -4 -147 -19 -195 l-20 -60 -8 75 c-14 125 -38 240 -58 279 -10 20 -19 34 -20 31 0 -3 -2 -46 -5 -95 -6 -120 -36 -231 -86 -324 -51 -96 -64 -109 -55 -56 36 219 38 245 33 385 -5 130 -31 286 -53 322 -4 5 -20 -4 -38 -20 -55 -52 -176 -125 -176 -107 0 3 27 40 60 81 58 72 99 142 114 192 7 20 4 22 -36 22 -78 0 -114 49 -83 114 26 55 73 66 118 28 9 -8 20 -12 24 -9 14 14 -19 115 -57 175 -22 34 -40 66 -40 69 0 8 43 -30 87 -77z m-397 49 c0 -6 -15 -29 -34 -52 -42 -53 -62 -92 -72 -141 -6 -36 -5 -39 12 -31 10 4 40 10 66 12 44 5 50 3 83 -30 36 -36 43 -64 25 -97 -14 -27 -45 -41 -104 -50 l-51 -6 60 -60 c33 -32 93 -81 133 -107 39 -27 72 -53 72 -59 0 -17 -96 0 -205 37 -72 24 -102 31 -107 22 -23 -37 -43 -161 -43 -267 0 -129 15 -215 57 -339 33 -99 32 -91 14 -91 -20 0 -121 132 -155 203 -33 70 -56 153 -67 241 -7 58 -7 59 -20 33 -21 -38 -41 -138 -55 -261 -14 -130 -28 -127 -53 12 -44 237 6 433 159 631 45 59 53 75 58 128 11 104 52 174 141 238 61 45 86 54 86 34z m120 -679 c24 -24 26 -63 5 -80 -8 -7 -15 -16 -15 -21 0 -22 18 -5 54 51 21 33 42 60 46 60 5 0 16 3 25 7 12 4 1 -27 -39 -104 -42 -81 -56 -120 -56 -151 l0 -42 53 0 c62 0 70 -5 127 -83 23 -31 54 -63 69 -70 38 -18 33 -41 -11 -47 -28 -4 -42 -13 -60 -40 -64 -97 -232 -107 -315 -18 -42 45 -56 128 -31 183 8 18 9 29 2 33 -22 15 -74 96 -74 116 0 17 19 31 84 65 74 38 83 46 70 58 -22 22 -18 69 8 87 29 20 34 20 58 -4z m-250 -701 c-19 -35 19 -57 39 -22 7 13 14 15 30 7 20 -9 20 -10 -12 -71 -32 -63 -40 -70 -66 -54 -10 7 -11 13 -1 30 9 17 9 26 -1 38 -12 13 -16 12 -34 -11 -18 -23 -23 -25 -39 -13 -18 13 -18 16 9 63 42 73 44 75 66 63 16 -8 17 -14 9 -30z m583 8 c-5 -30 -2 -33 43 -55 l47 -23 -23 -16 c-21 -15 -26 -15 -51 0 -32 18 -45 8 -30 -21 10 -20 -2 -42 -24 -42 -11 0 -75 101 -75 118 0 19 32 23 46 5 12 -17 13 -16 14 5 0 22 32 62 49 62 6 0 7 -15 4 -33z m-431 -84 l4 -38 13 33 c7 17 17 32 21 32 22 0 40 -14 40 -30 0 -27 17 -34 25 -10 6 18 45 29 45 13 0 -5 -10 -36 -22 -70 -16 -44 -28 -63 -40 -63 -21 0 -38 29 -39 67 -1 27 -1 27 -17 -10 -14 -31 -22 -37 -42 -35 -24 3 -25 6 -28 76 -3 66 -1 72 17 72 16 0 21 -8 23 -37z m283 7 c0 -10 -10 -15 -27 -15 -14 0 -30 -3 -34 -7 -4 -5 9 -8 29 -8 53 0 67 -9 67 -41 0 -44 -54 -72 -104 -53 -9 3 -16 12 -16 19 0 17 31 28 43 16 11 -11 37 -4 37 10 0 5 -17 9 -38 9 -61 0 -84 43 -39 75 27 19 82 16 82 -5z" style="&#10;    fill: #ff0016;&#10;"/>
<path d="M583 1716 c-51 -55 -67 -93 -79 -185 -6 -44 -17 -67 -60 -125 -72 -96 -141 -235 -160 -326 -17 -78 -15 -240 4 -290 7 -19 10 -11 16 46 12 124 63 274 92 274 7 0 14 -28 18 -72 10 -102 33 -193 69 -263 31 -63 87 -149 92 -143 2 2 -8 46 -21 98 -47 177 -44 365 8 517 l21 62 48 -24 c47 -25 189 -68 197 -61 2 2 -18 19 -45 36 -83 56 -173 152 -173 185 0 3 17 5 38 5 118 0 168 62 95 120 -33 26 -69 25 -112 -1 -27 -16 -36 -18 -42 -7 -20 31 -3 115 36 172 36 53 14 44 -42 -18z" style="&#10;    fill: #ff0016;&#10;"/>
<path d="M703 944 c-18 -8 -33 -17 -33 -20 0 -5 30 -58 45 -82 1 -1 10 0 19 4 12 5 16 19 16 60 0 59 0 59 -47 38z" style="&#10;    fill: #ff0016;&#10;"/>
<path d="M735 764 c-21 -45 -14 -90 21 -127 32 -34 63 -47 115 -47 62 0 106 31 128 92 8 23 5 33 -25 72 l-35 46 -93 0 -94 0 -17 -36z" style="&#10;    fill: #ff0016;&#10;"/>




























</g>
</svg>