<svg xmlns="http://www.w3.org/2000/svg" width="142" height="112" viewBox="0 0 142 112" fill="none">
<path d="M8 48.5C3.85786 48.5 0.5 51.8579 0.5 56C0.5 60.1421 3.85786 63.5 8 63.5L8 48.5ZM139.303 61.3033C142.232 58.3744 142.232 53.6256 139.303 50.6967L91.5736 2.96699C88.6447 0.0380592 83.8959 0.0380592 80.967 2.96699C78.0381 5.89592 78.0381 10.6447 80.967 13.5736L123.393 56L80.967 98.4264C78.0381 101.355 78.0381 106.104 80.967 109.033C83.8959 111.962 88.6447 111.962 91.5736 109.033L139.303 61.3033ZM8 63.5L134 63.5L134 48.5L8 48.5L8 63.5Z" fill="#ff0016"/>
</svg>