<?xml version="1.0" standalone="no"?>
<!DOCTYPE svg PUBLIC "-//W3C//DTD SVG 20010904//EN"
 "http://www.w3.org/TR/2001/REC-SVG-20010904/DTD/svg10.dtd">
<svg version="1.0" xmlns="http://www.w3.org/2000/svg"
 width="1392.000000pt" height="1392.000000pt" viewBox="0 0 1392.000000 1392.000000"
 preserveAspectRatio="xMidYMid meet">
<metadata>
Created by potrace 1.14, written by Peter Selinger 2001-2017
</metadata>
<g transform="translate(0.000000,1392.000000) scale(0.100000,-0.100000)"
fill="#000000" stroke="none">
<path d="M6850 13830 c-8 -5 -11 -10 -7 -10 5 0 -5 -26 -22 -57 -30 -60 -46
-102 -43 -115 1 -5 -2 -8 -8 -8 -5 0 -10 -5 -10 -11 0 -6 -6 -25 -14 -42 -8
-18 -28 -68 -45 -112 -17 -44 -36 -93 -42 -110 -7 -16 -13 -32 -13 -35 -1 -6
-25 -69 -37 -95 -33 -78 -56 -145 -51 -149 3 -3 0 -6 -7 -6 -7 0 -10 -4 -7 -8
2 -4 -2 -21 -9 -37 -16 -34 -105 -270 -107 -285 -1 -3 -13 -34 -28 -70 -39
-94 -43 -103 -47 -123 -1 -10 -9 -30 -17 -45 -7 -15 -21 -52 -31 -82 -10 -30
-22 -61 -28 -67 -5 -7 -6 -13 -1 -13 5 0 4 -4 -1 -8 -6 -4 -21 -38 -34 -77
-13 -38 -27 -74 -31 -80 -4 -5 -19 -46 -35 -90 -15 -44 -32 -86 -38 -92 -5 -7
-6 -13 -2 -13 4 0 2 -7 -5 -15 -7 -8 -9 -15 -5 -15 4 0 3 -6 -3 -12 -6 -7 -21
-42 -35 -78 -14 -36 -31 -78 -37 -95 -7 -16 -14 -37 -16 -45 -2 -8 -7 -23 -13
-35 -25 -50 -70 -165 -64 -165 3 0 1 -6 -5 -12 -5 -7 -22 -44 -37 -83 -31 -78
-50 -125 -70 -170 -7 -16 -34 -82 -60 -145 -26 -63 -57 -137 -70 -165 -12 -27
-46 -104 -75 -170 -65 -148 -109 -244 -166 -359 -24 -50 -44 -94 -44 -100 0
-5 -6 -17 -14 -25 -8 -9 -16 -22 -18 -30 -2 -8 -17 -40 -35 -72 -17 -32 -35
-68 -39 -81 -3 -13 -9 -25 -13 -28 -3 -3 -24 -41 -47 -85 -74 -146 -129 -250
-134 -255 -3 -3 -16 -27 -30 -55 -14 -27 -27 -52 -30 -55 -3 -3 -18 -30 -34
-60 -25 -47 -152 -273 -206 -365 -9 -16 -52 -91 -95 -165 -43 -74 -94 -162
-113 -195 -19 -33 -40 -69 -46 -80 -18 -31 -76 -128 -86 -145 -22 -34 -234
-397 -249 -425 -9 -16 -19 -32 -22 -35 -3 -3 -25 -39 -48 -80 -23 -41 -46 -82
-51 -90 -40 -63 -130 -222 -130 -230 0 -6 -4 -10 -8 -10 -4 0 -13 -12 -19 -27
-7 -16 -26 -53 -43 -83 -18 -30 -43 -74 -56 -97 -13 -24 -43 -78 -67 -120 -44
-78 -86 -157 -264 -493 -7 -14 -13 -30 -13 -37 0 -6 -4 -13 -8 -15 -6 -2 -132
-248 -137 -268 -1 -3 -18 -39 -38 -81 -20 -42 -37 -81 -37 -87 0 -7 -5 -12
-10 -12 -6 0 -9 -3 -8 -7 1 -8 -5 -23 -62 -153 -47 -107 -132 -328 -135 -350
0 -3 -6 -18 -12 -35 -15 -36 -36 -115 -67 -245 -15 -67 -25 -122 -32 -175 -3
-16 -7 -46 -9 -65 -11 -73 -13 -98 -20 -220 -10 -152 -10 -266 -1 -425 7 -122
8 -135 21 -240 4 -33 9 -73 10 -90 2 -16 8 -59 15 -95 6 -36 13 -78 16 -95 4
-27 15 -80 30 -145 3 -14 8 -36 10 -50 1 -14 10 -52 20 -85 9 -33 17 -67 19
-75 9 -40 60 -205 91 -295 20 -55 37 -104 38 -110 5 -17 18 -49 37 -92 10 -24
19 -49 19 -56 0 -7 4 -17 8 -23 5 -5 15 -25 22 -44 8 -19 25 -60 39 -90 14
-30 24 -58 23 -62 -1 -5 3 -8 9 -8 5 0 7 -4 4 -10 -3 -5 -1 -10 4 -10 6 0 11
-6 11 -12 0 -7 20 -51 45 -98 25 -47 57 -110 72 -140 16 -30 31 -57 34 -60 3
-3 19 -27 34 -55 16 -27 32 -52 36 -55 3 -3 9 -15 13 -27 4 -13 12 -23 17 -23
5 0 9 -5 9 -10 0 -10 37 -67 51 -80 3 -3 16 -23 29 -45 23 -38 31 -49 73 -97
9 -12 17 -24 17 -27 0 -3 13 -20 28 -38 15 -17 37 -44 49 -60 22 -29 31 -39
116 -138 86 -100 407 -415 423 -415 2 0 12 -8 22 -17 10 -10 35 -31 56 -48 21
-16 47 -38 59 -47 11 -10 23 -18 26 -18 3 0 18 -11 33 -25 34 -31 294 -205
308 -205 5 0 10 -4 10 -9 0 -5 8 -11 18 -15 18 -6 62 -30 106 -59 14 -10 26
-14 26 -11 0 4 8 1 18 -7 22 -19 319 -162 341 -165 6 -1 15 -4 81 -31 75 -31
298 -103 400 -129 43 -11 199 -45 225 -49 17 -2 41 -7 55 -10 14 -3 42 -8 64
-11 21 -3 48 -7 59 -10 12 -2 53 -6 92 -10 38 -3 79 -8 90 -11 38 -10 541 -11
625 -2 47 5 105 11 130 14 48 5 96 11 158 21 20 3 47 6 60 7 12 1 22 5 22 10
0 4 3 6 8 3 6 -4 30 0 127 18 11 2 56 14 100 26 44 12 88 23 97 25 48 10 171
48 233 71 39 14 75 27 80 28 47 13 341 139 347 149 4 7 8 8 8 4 0 -4 34 10 75
33 41 23 75 38 75 35 0 -3 6 -1 13 5 6 6 62 39 122 74 133 75 360 224 375 244
3 5 21 19 40 32 19 13 37 27 40 30 3 3 27 23 54 45 99 79 344 318 436 425 36
41 67 77 70 80 3 3 39 48 80 100 40 52 77 97 82 98 4 2 8 9 8 15 0 7 10 24 23
39 46 57 173 249 216 328 14 25 27 47 30 50 12 10 211 402 211 415 0 3 12 32
26 63 34 75 77 183 99 252 10 30 21 60 25 65 5 6 8 12 8 15 -1 3 4 21 9 40 6
19 18 62 28 95 9 33 19 67 22 75 3 8 8 24 10 34 2 11 10 45 18 75 8 31 17 71
20 90 3 19 7 37 9 40 2 3 7 22 10 41 3 19 7 44 10 55 3 19 15 97 21 140 29
203 33 278 29 525 -2 135 -6 259 -8 275 -8 53 -18 119 -21 140 -2 11 -7 39
-10 63 -8 50 -10 58 -18 92 -7 27 -48 196 -52 214 -1 6 -5 18 -8 26 -3 8 -24
76 -48 150 -23 74 -48 149 -55 165 -11 25 -22 55 -29 75 -1 3 -5 14 -10 25 -4
11 -20 52 -35 90 -16 39 -36 88 -46 110 -10 22 -18 42 -19 45 -4 13 -21 51
-51 118 -19 41 -34 75 -34 77 0 2 -38 83 -85 180 -47 97 -85 178 -85 180 0 2
-13 26 -28 52 -16 26 -29 51 -30 56 -1 4 -18 40 -39 80 -20 39 -46 90 -57 112
-11 22 -24 42 -28 43 -4 2 -8 11 -8 21 0 9 -4 21 -9 27 -4 5 -32 54 -61 109
-52 99 -87 164 -140 260 -15 28 -44 82 -65 120 -21 39 -67 121 -101 184 -35
62 -64 117 -64 122 0 5 -3 9 -7 9 -5 0 -13 10 -18 23 -26 54 -81 152 -87 155
-5 2 -8 7 -8 12 0 5 -22 47 -50 95 -27 48 -50 91 -50 96 0 5 -4 9 -10 9 -5 0
-10 4 -10 9 0 5 -67 127 -150 271 -82 145 -150 267 -150 272 0 4 -4 8 -10 8
-5 0 -10 4 -10 9 0 5 -25 53 -55 106 -30 54 -55 99 -55 101 0 3 -10 21 -23 42
-13 20 -41 69 -62 107 -79 143 -89 161 -107 195 -10 19 -32 58 -47 86 -93 168
-156 286 -227 424 -27 52 -53 98 -57 101 -5 3 -8 9 -8 13 1 3 -15 39 -36 79
-20 39 -36 75 -35 80 1 4 -3 7 -8 7 -5 0 -9 3 -8 8 2 9 -76 168 -93 188 -6 8
-9 14 -6 14 4 0 -16 45 -43 100 -28 55 -50 102 -50 105 0 2 -19 44 -41 92 -23
49 -71 156 -106 238 -85 196 -86 199 -88 205 -1 3 -9 23 -19 45 -10 22 -67
164 -128 315 -61 151 -115 286 -121 300 -5 14 -11 31 -13 38 -1 8 -9 28 -17
45 -15 31 -55 135 -166 432 -29 77 -59 154 -66 170 -8 17 -32 77 -54 135 -117
306 -182 477 -191 495 -4 11 -23 58 -40 105 -18 47 -37 91 -43 99 -7 8 -10 16
-9 18 4 3 -37 113 -73 198 -7 17 -20 51 -30 78 -10 26 -18 47 -19 47 0 0 -8
-5 -16 -10z m928 -3997 c15 -10 34 -25 43 -33 8 -8 42 -38 75 -66 77 -67 264
-253 336 -335 89 -101 192 -249 242 -349 74 -146 104 -208 111 -230 4 -14 11
-29 15 -35 22 -30 116 -345 125 -420 2 -16 6 -55 9 -85 15 -139 40 -248 72
-325 9 -22 18 -48 20 -58 2 -11 11 -28 20 -38 10 -11 14 -19 10 -19 -4 0 2
-13 13 -29 12 -16 21 -32 21 -35 0 -4 23 -43 50 -87 28 -44 50 -85 50 -90 0
-5 5 -9 10 -9 6 0 10 -5 10 -11 0 -6 14 -31 30 -56 17 -24 30 -48 30 -54 0 -5
5 -9 10 -9 6 0 10 -9 10 -19 0 -11 4 -21 8 -23 5 -1 40 -57 78 -123 38 -66 72
-121 76 -123 5 -2 8 -12 8 -22 0 -10 4 -21 9 -25 5 -3 23 -31 39 -63 16 -31
58 -113 93 -182 36 -69 100 -204 143 -300 98 -219 106 -237 106 -244 0 -3 9
-25 20 -49 10 -23 33 -78 50 -122 17 -44 35 -89 40 -100 14 -31 62 -168 64
-185 1 -9 5 -20 8 -25 6 -10 45 -206 47 -235 0 -8 3 -60 7 -115 15 -224 8
-998 -11 -1150 -12 -96 -28 -192 -36 -220 -4 -16 -11 -43 -14 -60 -7 -33 -9
-42 -18 -65 -3 -8 -30 -91 -61 -185 -30 -93 -56 -163 -56 -155 -1 8 -3 24 -5
35 -4 20 -15 112 -20 175 -2 19 -7 62 -10 95 -4 33 -8 76 -10 95 -5 44 -14
115 -21 160 -3 19 -8 53 -10 75 -2 22 -7 58 -10 80 -4 22 -8 50 -9 63 -3 24
-23 149 -31 192 -13 71 -18 107 -18 128 -1 12 -5 22 -10 22 -4 0 -6 9 -3 20 3
11 1 20 -5 20 -5 0 -7 4 -3 9 3 6 1 29 -4 53 -14 61 -52 230 -56 248 -18 85
-55 212 -82 285 -25 68 -73 175 -83 185 -7 7 -28 41 -42 68 -15 30 -28 28 -29
-5 -2 -52 -6 -138 -14 -278 -4 -77 -8 -159 -9 -182 0 -24 -4 -43 -8 -43 -4 0
-3 -11 2 -25 5 -14 6 -25 2 -25 -4 0 -8 -21 -8 -48 -2 -79 -24 -275 -39 -352
-2 -13 -7 -42 -11 -65 -3 -22 -10 -62 -16 -90 -5 -27 -11 -59 -13 -70 -8 -53
-82 -330 -106 -395 -5 -14 -11 -34 -14 -45 -5 -25 -38 -118 -58 -165 -21 -53
-30 -74 -32 -80 -1 -3 -9 -22 -18 -44 -9 -21 -17 -40 -17 -43 0 -26 -280 -546
-342 -636 -72 -103 -92 -104 -84 -4 2 39 7 83 10 97 3 14 9 45 12 70 3 25 7
52 9 60 2 8 7 38 11 65 3 28 8 59 11 70 3 11 6 34 8 50 1 17 5 44 8 60 7 33
32 196 42 260 3 23 7 50 9 60 4 22 16 103 22 153 2 17 6 47 8 65 7 56 18 158
21 191 2 17 4 31 4 31 4 0 14 228 15 332 1 62 4 113 8 113 4 0 4 10 -1 22 -4
13 -5 35 -1 50 5 14 6 29 3 32 -3 3 -7 68 -9 143 -4 208 -14 403 -29 578 -4
39 -8 90 -10 115 -3 41 -10 110 -20 185 -2 17 -7 53 -10 80 -9 74 -15 113 -27
185 -5 36 -11 76 -13 90 -2 14 -6 41 -10 60 -3 19 -8 46 -10 60 -12 79 -41
215 -61 292 -9 35 -18 70 -19 78 -2 8 -4 16 -5 18 -2 1 -4 7 -5 12 -1 6 -4 12
-5 15 -1 3 -3 8 -4 13 -7 29 -42 121 -53 138 -10 16 -20 20 -41 16 -27 -5
-110 -56 -124 -76 -4 -6 -8 -8 -8 -4 0 3 -17 -10 -39 -30 -64 -61 -93 -86
-202 -168 -126 -97 -314 -224 -328 -224 -6 0 -11 -4 -11 -10 0 -5 -4 -10 -8
-10 -5 0 -47 -22 -93 -50 -46 -27 -88 -50 -93 -50 -5 0 -17 -6 -25 -14 -24
-20 -135 -58 -160 -54 -21 3 -19 8 31 83 29 44 60 87 68 96 8 9 24 29 35 44
29 41 80 106 104 133 12 12 21 25 21 27 0 5 23 35 45 59 24 25 195 255 235
316 24 36 46 67 49 70 3 3 12 16 20 30 8 14 42 70 76 125 50 82 144 264 185
360 18 41 60 174 60 189 0 34 -43 47 -176 51 -187 7 -232 15 -321 57 -124 59
-195 152 -209 273 -8 66 -8 71 -1 100 2 11 8 37 11 59 4 21 11 46 16 55 5 9
22 44 39 79 35 70 100 161 117 161 7 1 14 7 17 14 9 23 114 68 171 74 92 9
223 -36 293 -102 34 -31 122 -75 140 -68 16 6 22 27 24 78 3 125 -86 402 -214
665 -39 80 -74 147 -79 148 -4 2 -8 10 -8 18 0 8 -4 14 -10 14 -5 0 -10 4 -10
10 0 5 -17 36 -37 67 -21 32 -43 67 -49 78 -6 11 -34 59 -62 107 -50 86 -69
128 -57 128 3 0 18 -8 33 -17z m-1705 -104 c21 -29 3 -82 -58 -164 -39 -54
-119 -160 -130 -172 -24 -28 -34 -42 -70 -93 -101 -143 -179 -278 -213 -367
-35 -91 -59 -163 -55 -163 2 0 1 -6 -4 -12 -4 -7 -8 -17 -9 -23 -8 -45 -14
-84 -19 -105 -14 -66 -14 -117 -1 -135 13 -18 16 -18 52 -2 41 17 96 32 154
41 19 3 46 8 60 10 98 18 231 30 316 29 84 -1 140 -32 249 -139 135 -132 196
-221 208 -302 3 -19 8 -36 11 -40 3 -3 1 -11 -5 -19 -7 -8 -8 -13 -1 -13 20 0
-24 -148 -55 -182 -9 -10 -13 -18 -8 -18 19 0 -96 -101 -147 -128 -83 -44
-217 -84 -322 -97 -21 -3 -42 -7 -46 -10 -4 -3 -36 -7 -71 -11 -35 -3 -77 -7
-94 -9 -16 -3 -49 -6 -73 -9 -24 -2 -45 -6 -48 -8 -3 -4 269 -278 381 -384 28
-25 104 -92 170 -146 66 -55 132 -111 147 -124 15 -13 31 -24 36 -24 4 0 14
-9 22 -20 8 -11 20 -20 26 -20 7 0 14 -3 16 -7 4 -10 62 -54 148 -112 36 -25
67 -48 68 -53 2 -4 8 -8 13 -8 11 0 239 -166 255 -186 6 -8 14 -14 18 -14 14
0 94 -82 99 -101 4 -15 -1 -23 -21 -31 -39 -15 -233 0 -352 27 -27 6 -45 10
-100 20 -19 4 -93 23 -165 42 -71 19 -137 37 -145 38 -8 2 -16 4 -17 4 -2 1
-6 1 -10 2 -5 1 -16 5 -26 11 -10 5 -28 11 -40 14 -12 2 -56 15 -97 29 -41 14
-86 28 -99 31 -14 3 -29 8 -35 12 -6 4 -13 7 -16 8 -20 4 -67 18 -75 23 -5 3
-19 7 -30 8 -11 2 -38 10 -60 19 -22 9 -47 17 -55 19 -8 2 -42 10 -75 19 -89
25 -95 26 -158 31 -52 4 -61 2 -80 -19 -23 -25 -54 -99 -83 -201 -25 -86 -34
-124 -37 -157 -1 -10 -4 -18 -7 -18 -3 0 -6 -8 -6 -17 -1 -16 -6 -47 -17 -108
-17 -86 -34 -202 -42 -285 -2 -19 -6 -55 -9 -80 -32 -255 -40 -953 -11 -1000
3 -5 1 -10 -5 -10 -6 0 -8 -5 -4 -12 5 -7 9 -33 10 -58 1 -25 3 -45 4 -45 1 0
3 -22 5 -50 1 -27 3 -50 4 -50 2 0 4 -16 6 -35 4 -47 14 -120 20 -150 2 -14 7
-41 10 -60 2 -19 6 -42 8 -50 2 -8 9 -49 17 -90 7 -41 18 -81 23 -88 5 -7 7
-15 5 -18 -3 -3 -2 -19 2 -37 7 -25 59 -219 74 -272 1 -5 13 -44 25 -85 13
-41 24 -79 26 -85 1 -5 5 -17 8 -25 3 -8 38 -114 77 -235 40 -121 76 -229 80
-240 12 -28 20 -64 26 -106 6 -39 -6 -51 -42 -44 -11 2 -27 4 -36 4 -19 1
-161 139 -234 226 -27 33 -51 62 -54 65 -3 3 -18 23 -35 45 -16 22 -34 45 -40
51 -5 7 -18 22 -27 35 -9 13 -38 53 -65 89 -55 74 -84 115 -98 140 -23 39 -70
105 -77 108 -5 2 -8 8 -8 13 0 5 -20 40 -45 78 -61 97 -144 258 -189 371 -21
52 -45 109 -52 125 -31 73 -126 385 -117 385 3 0 1 6 -5 13 -6 7 -14 28 -17
47 -3 19 -14 71 -25 115 -10 44 -22 100 -25 125 -4 24 -8 48 -11 51 -2 4 -6
24 -9 45 -3 22 -8 55 -12 74 -8 46 -9 54 -17 127 -4 34 -9 72 -12 85 -2 13 -6
46 -9 73 -8 86 -28 155 -40 143 -16 -16 -89 -172 -115 -244 -17 -49 -31 -89
-30 -89 1 0 -1 -7 -3 -15 -7 -23 -35 -138 -48 -195 -17 -80 -21 -97 -34 -165
-3 -14 -7 -36 -10 -50 -3 -14 -8 -43 -10 -65 -3 -22 -8 -48 -11 -59 -3 -10 -8
-35 -10 -55 -1 -20 -6 -47 -9 -61 -3 -14 -8 -45 -11 -70 -8 -62 -12 -89 -18
-130 -3 -19 -8 -57 -11 -85 -3 -27 -9 -68 -12 -90 -2 -22 -7 -53 -9 -70 -2
-16 -6 -58 -10 -93 -3 -35 -7 -71 -9 -81 -2 -10 -6 -42 -10 -71 -4 -29 -9 -62
-11 -74 -2 -12 -6 -34 -9 -51 -11 -65 -18 -91 -36 -131 -19 -46 -40 -52 -63
-18 -14 21 -52 127 -60 165 -2 13 -9 42 -14 64 -6 22 -13 57 -16 79 -4 21 -8
42 -11 46 -2 4 -7 26 -10 50 -3 23 -7 45 -10 50 -2 4 -7 26 -10 50 -3 23 -8
46 -11 51 -3 5 -7 28 -9 52 -1 23 -6 53 -9 67 -3 14 -9 45 -11 70 -3 25 -7 56
-9 70 -3 14 -7 54 -10 90 -3 36 -8 81 -11 100 -22 153 -22 572 1 773 3 29 7
66 8 83 1 16 5 34 7 40 3 5 5 26 5 46 -1 21 1 38 4 38 3 0 7 15 9 33 3 30 8
69 10 75 1 1 1 4 2 7 0 2 4 19 9 36 5 18 12 50 16 73 3 22 8 44 10 48 3 4 7
18 9 30 9 49 51 189 92 308 24 69 46 132 48 140 2 8 10 29 19 45 9 17 16 33
16 37 0 4 14 36 30 71 17 36 30 70 30 76 0 6 5 11 10 11 6 0 10 7 10 16 0 14
79 173 140 279 54 96 150 249 228 365 83 121 94 136 120 165 6 7 12 18 12 23
0 6 4 12 8 14 11 4 166 215 223 303 25 39 56 92 68 119 25 55 60 182 65 236 8
85 18 159 26 205 15 79 23 129 24 148 0 9 3 17 6 17 3 0 6 8 7 18 2 25 52 180
75 232 57 127 108 222 138 257 11 13 20 26 19 29 -2 23 239 282 318 341 21 15
48 38 61 51 13 12 27 22 31 22 4 0 19 10 33 23 20 18 205 145 283 195 41 26
131 61 157 62 9 0 23 -9 31 -21z m636 -3640 c142 -140 157 -324 37 -447 -61
-62 -73 -81 -72 -117 2 -63 57 -34 136 72 24 32 51 64 59 71 8 6 11 12 6 12
-4 0 -1 8 7 18 25 27 128 184 128 194 0 4 4 8 8 8 5 0 15 12 23 28 8 15 16 29
19 32 3 3 24 30 47 60 66 88 86 107 118 113 42 7 66 14 98 26 35 13 40 14 32
2 -3 -5 -1 -12 4 -16 7 -4 7 -15 0 -33 -6 -15 -12 -34 -14 -43 -3 -15 -68
-167 -85 -199 -38 -72 -300 -600 -300 -605 0 -3 -9 -25 -19 -49 -34 -74 -61
-146 -55 -146 4 0 2 -6 -4 -13 -6 -7 -13 -24 -16 -37 -3 -14 -12 -52 -19 -86
-8 -33 -14 -124 -15 -205 l-1 -145 217 -2 c119 0 233 -3 252 -7 142 -25 222
-82 360 -260 30 -38 58 -71 62 -73 5 -2 8 -8 8 -13 0 -10 122 -169 175 -228
110 -125 255 -251 287 -251 23 0 96 -76 100 -103 11 -65 -63 -110 -217 -133
-125 -19 -210 -83 -312 -234 -32 -48 -160 -180 -174 -180 -4 0 -14 -6 -21 -13
-42 -41 -235 -136 -310 -153 -5 -1 -10 -3 -13 -4 -3 -1 -8 -3 -12 -4 -90 -22
-112 -26 -173 -33 -66 -8 -271 -7 -320 1 -70 11 -128 22 -132 25 -2 2 -13 4
-26 7 -38 7 -206 74 -213 85 -3 6 -9 10 -13 9 -4 -1 -33 14 -65 33 -92 57
-199 156 -251 232 -33 49 -102 175 -96 175 3 0 -2 17 -11 38 -15 36 -37 120
-51 192 -3 19 -6 98 -5 175 0 146 8 182 72 357 32 88 29 106 -31 164 -29 28
-64 66 -78 84 -14 18 -29 38 -35 44 -17 19 -115 165 -115 172 0 4 -10 21 -23
38 -21 28 -79 143 -105 208 -25 62 9 129 101 196 67 49 246 151 442 252 198
101 295 169 295 204 0 8 -10 27 -23 43 -87 106 -104 232 -47 360 29 66 56 94
135 142 107 65 143 59 244 -40z m1784 -3544 c11 -10 14 -34 12 -87 -1 -40 -4
-73 -5 -73 -1 0 -3 -29 -5 -65 -2 -51 2 -71 19 -97 12 -18 25 -33 29 -33 5 0
22 -10 39 -21 26 -19 265 -142 278 -143 3 -1 31 -14 62 -31 l56 -29 -76 -54
c-106 -74 -143 -92 -184 -88 -31 3 -117 40 -128 56 -9 12 -95 42 -132 46 -31
3 -41 -1 -53 -20 -18 -27 -15 -50 14 -124 31 -78 32 -102 8 -152 -24 -49 -90
-92 -126 -83 -33 8 -145 145 -206 251 -5 9 -12 19 -15 22 -8 8 -29 43 -42 70
-7 14 -17 32 -24 40 -30 37 -105 196 -110 233 -5 36 -2 45 19 65 28 26 80 37
133 28 26 -5 51 -23 90 -63 30 -31 57 -53 60 -50 3 3 8 27 10 54 2 26 6 58 8
71 8 36 53 124 82 157 14 17 37 43 50 58 21 25 99 77 116 77 4 0 13 -7 21 -15z
m-3140 -53 c33 -18 58 -40 58 -50 4 -43 1 -60 -20 -106 -38 -86 -34 -137 15
-183 30 -28 83 -30 122 -5 34 22 72 62 72 76 0 16 57 61 78 61 29 1 126 -45
143 -67 21 -27 12 -61 -47 -183 -117 -241 -214 -408 -259 -447 -43 -37 -74
-40 -131 -14 -89 42 -97 70 -48 175 52 109 47 159 -20 223 -43 40 -67 33 -128
-36 -93 -104 -138 -146 -157 -146 -29 0 -100 41 -127 73 -25 30 -33 90 -14
102 6 4 8 10 5 15 -3 5 1 15 9 22 7 8 17 25 21 38 4 13 26 55 49 94 198 333
216 360 261 384 29 16 53 11 118 -26z m792 -378 c32 -21 46 -66 59 -184 2 -25
8 -74 12 -110 4 -36 7 -69 5 -75 -1 -5 3 -5 9 1 6 6 13 20 15 30 2 11 4 20 4
22 1 1 1 3 0 5 0 1 14 33 31 71 64 144 65 145 103 187 22 24 78 19 140 -13 72
-36 91 -71 102 -183 4 -49 34 -80 69 -71 18 4 34 22 52 59 15 28 34 58 43 65
52 41 129 66 171 55 34 -9 34 -45 -1 -155 -18 -57 -33 -105 -34 -108 -2 -13
-38 -116 -44 -125 -3 -5 -7 -18 -8 -28 -2 -10 -13 -37 -24 -60 -12 -23 -21
-43 -19 -45 8 -10 -80 -163 -111 -193 -37 -36 -40 -37 -81 -27 -52 11 -100 55
-130 118 -13 25 -23 47 -24 50 0 3 -4 12 -7 20 -13 31 -27 155 -28 243 0 32
-20 17 -41 -30 -104 -244 -152 -298 -253 -289 -16 2 -42 4 -56 4 -35 3 -82 50
-86 87 -1 11 -5 43 -8 70 -18 163 -26 501 -13 559 5 22 17 45 26 52 24 18 98
17 127 -2z m1480 -63 c55 -16 75 -33 81 -73 6 -36 -16 -66 -53 -73 -10 -2 -18
-4 -18 -6 0 -1 -25 -3 -55 -4 -107 -5 -181 -22 -195 -45 -14 -23 15 -30 148
-36 147 -6 189 -11 220 -23 15 -6 27 -8 27 -5 0 13 62 -30 82 -56 27 -37 31
-57 32 -140 0 -116 -66 -211 -187 -268 -105 -49 -213 -56 -335 -20 -139 41
-147 172 -14 212 56 16 87 12 125 -15 59 -43 159 -33 189 19 17 28 17 30 -1
46 -10 10 -32 19 -47 21 -16 2 -29 4 -29 5 0 1 -25 3 -56 4 -30 2 -61 6 -69
11 -9 6 -11 4 -5 -5 5 -9 4 -11 -4 -6 -6 4 -31 9 -55 10 -135 10 -248 96 -255
196 -7 109 131 236 279 257 19 3 36 6 38 8 7 6 121 -4 157 -14z"/>
<path d="M5693 9419 c-36 -13 -313 -295 -393 -399 -19 -25 -37 -47 -40 -50
-26 -23 -148 -245 -157 -286 -1 -5 -11 -34 -22 -65 -11 -31 -23 -71 -26 -89
-3 -18 -8 -37 -11 -41 -4 -8 -21 -87 -30 -149 -6 -38 -8 -50 -23 -150 -6 -36
-13 -83 -17 -105 -7 -50 -43 -166 -57 -182 -5 -7 -7 -13 -3 -13 21 0 -204
-355 -285 -449 -15 -17 -165 -240 -209 -311 -53 -86 -54 -87 -71 -117 -90
-160 -160 -288 -184 -338 -15 -33 -33 -63 -39 -67 -6 -4 -8 -8 -4 -8 4 0 -6
-26 -21 -57 -29 -59 -48 -101 -72 -160 -8 -18 -17 -33 -21 -33 -5 0 -7 -3 -6
-7 2 -5 -20 -69 -49 -143 -62 -164 -65 -172 -69 -185 -1 -5 -12 -44 -24 -85
-12 -41 -23 -82 -25 -90 -2 -8 -4 -15 -5 -15 -1 0 -3 -7 -5 -15 -1 -8 -8 -42
-16 -75 -7 -33 -14 -72 -15 -87 -1 -16 -2 -29 -4 -30 -1 -2 -3 -19 -5 -38 -2
-19 -7 -57 -10 -85 -23 -180 -24 -743 -1 -965 6 -56 17 -139 22 -165 3 -11 9
-42 14 -68 5 -27 19 -69 30 -94 16 -37 23 -43 34 -34 8 7 13 20 11 29 -1 9 0
21 3 27 7 11 8 19 17 100 8 80 9 88 18 103 5 6 4 12 -1 12 -6 0 -7 15 -2 38 5
20 11 62 14 92 7 66 63 383 76 425 5 17 12 44 15 60 3 17 12 55 20 85 9 30 18
66 21 80 9 42 111 342 135 395 12 28 23 52 23 55 2 14 62 125 69 128 4 2 7 9
7 15 0 16 48 69 81 91 25 16 28 16 44 0 9 -9 21 -29 27 -43 17 -44 46 -213 54
-311 16 -199 80 -593 114 -705 5 -16 11 -41 14 -55 2 -14 12 -51 21 -84 9 -32
18 -64 20 -70 1 -6 5 -20 9 -31 28 -73 36 -96 36 -100 1 -11 39 -117 69 -190
42 -104 220 -444 264 -505 9 -14 17 -30 17 -36 0 -6 9 -19 20 -29 11 -10 18
-20 16 -23 -3 -2 20 -40 50 -84 30 -44 54 -84 54 -89 0 -5 5 -9 10 -9 6 0 10
-5 10 -11 0 -19 114 -159 130 -159 7 0 5 56 -3 80 -2 8 -10 40 -17 70 -10 47
-28 130 -45 205 -8 36 -85 349 -95 385 -5 19 -12 51 -15 70 -3 19 -12 67 -20
105 -13 68 -28 154 -31 185 -1 8 -3 17 -4 20 -3 7 -8 57 -14 120 -3 30 -6 55
-7 55 -3 0 -17 173 -25 320 -11 204 -6 554 11 691 3 22 7 63 10 90 2 27 5 49
5 49 1 0 3 16 5 35 6 62 21 161 30 200 4 14 8 39 10 57 2 17 16 82 30 143 15
60 28 118 30 128 2 9 4 17 5 17 1 0 3 9 5 20 4 20 81 267 92 295 3 8 7 22 9
30 2 8 7 23 13 35 5 11 19 52 32 90 12 39 26 75 30 81 5 6 6 14 2 17 -3 4 -1
7 5 7 12 0 46 -16 217 -102 50 -25 119 -58 155 -72 36 -15 74 -31 85 -35 11
-5 47 -19 80 -31 33 -12 68 -26 77 -31 10 -5 26 -9 36 -9 10 0 22 -3 26 -7 3
-4 12 -8 19 -9 7 -1 56 -16 109 -34 54 -17 103 -33 110 -34 7 -2 20 -6 28 -9
45 -18 263 -69 315 -74 l60 -5 -32 32 c-33 32 -84 73 -123 100 -12 8 -28 21
-36 28 -7 6 -17 12 -23 12 -6 0 -11 5 -11 10 0 6 -4 10 -9 10 -14 0 -131 82
-131 92 0 4 -4 8 -10 8 -5 0 -18 6 -27 14 -10 8 -38 31 -63 51 -235 191 -456
409 -574 570 -17 22 -33 42 -37 45 -10 8 -86 152 -94 178 -7 23 8 44 35 51 8
2 67 5 130 7 191 6 270 15 365 39 33 9 65 17 70 18 25 6 144 66 165 83 59 48
114 121 119 157 1 4 1 10 2 15 13 96 -35 197 -139 293 -64 58 -154 110 -224
128 -48 12 -159 8 -218 -8 -54 -15 -250 -111 -250 -123 0 -4 -3 -7 -7 -6 -5 1
-25 -6 -47 -15 -21 -9 -49 -17 -62 -17 -82 0 -120 198 -79 416 18 99 71 270
86 279 5 4 7 10 4 15 -3 5 -1 11 5 15 6 4 8 11 5 16 -4 5 -1 9 6 9 7 0 10 3 6
6 -5 6 41 98 75 146 10 14 18 31 18 36 0 6 3 12 8 14 11 5 68 98 85 140 17 41
13 50 -20 37z"/>
<path d="M6185 5090 c-11 -5 -41 -17 -68 -29 -26 -11 -48 -20 -50 -19 -5 2
-132 -68 -135 -74 -2 -5 -9 -8 -16 -8 -7 0 -20 -8 -30 -19 -16 -17 -14 -23 26
-102 23 -46 61 -117 85 -157 24 -40 43 -74 43 -77 0 -2 14 -24 30 -48 17 -25
30 -50 30 -56 0 -14 43 -14 92 1 83 25 101 80 104 326 2 176 -4 234 -26 256
-13 13 -59 16 -85 6z"/>
<path d="M6319 4262 c-8 -1 -21 -17 -28 -35 -8 -18 -29 -62 -47 -100 -41 -85
-75 -183 -78 -223 -1 -16 -5 -34 -8 -40 -17 -30 17 -240 43 -268 5 -6 9 -16 9
-23 0 -29 78 -134 161 -214 108 -106 240 -179 349 -194 8 -1 32 -5 53 -10 79
-16 307 -10 362 9 6 2 13 4 17 5 5 1 34 11 65 23 102 38 160 76 240 158 38 39
117 150 107 150 -4 0 0 8 8 18 32 38 77 180 72 227 -7 53 -9 60 -32 98 -12 21
-22 40 -22 43 0 3 -5 10 -10 17 -6 7 -28 37 -50 67 -21 30 -45 62 -53 70 -7 8
-27 33 -43 55 -16 22 -47 64 -70 92 -23 29 -44 58 -46 65 -3 9 -116 12 -494
13 -270 0 -497 -1 -505 -3z"/>
</g>
</svg>
