<svg xmlns="http://www.w3.org/2000/svg" xmlns:xlink="http://www.w3.org/1999/xlink" width="330" zoomAndPan="magnify" viewBox="0 0 247.5 247.500006" height="330" preserveAspectRatio="xMidYMid meet" version="1.0" style="&#10;"><defs><clipPath id="b63e81ce11"><path d="M 0 0 L 247 0 L 247 247 L 0 247 Z M 0 0 " clip-rule="nonzero"/></clipPath><clipPath id="41dc304309"><path d="M 53.460938 0.4375 L 210.175781 0.4375 L 210.175781 247 L 53.460938 247 Z M 53.460938 0.4375 " clip-rule="nonzero"/></clipPath></defs><g clip-path="url(#41dc304309)"><path fill="#100f0d" d="M 203.769531 149.941406 L 177.214844 183.199219 L 150.660156 149.941406 C 146.3125 144.488281 146.695312 136.609375 151.558594 131.609375 C 154.175781 128.914062 157.789062 127.394531 161.53125 127.394531 C 161.707031 127.394531 161.875 127.394531 162.050781 127.402344 C 165.976562 127.550781 169.679688 129.363281 172.199219 132.375 L 175.921875 136.816406 C 176.566406 137.585938 177.871094 137.585938 178.515625 136.816406 L 182.234375 132.375 C 184.757812 129.363281 188.457031 127.550781 192.390625 127.402344 C 196.34375 127.25 200.140625 128.792969 202.878906 131.609375 C 207.742188 136.613281 208.125 144.488281 203.769531 149.941406 Z M 79.621094 124.019531 C 78.933594 124.019531 78.363281 123.457031 78.363281 122.761719 L 78.363281 112.148438 L 97.890625 112.148438 L 97.890625 122.761719 C 97.890625 123.457031 97.328125 124.019531 96.632812 124.019531 Z M 70.355469 108.769531 C 62.90625 108.769531 56.84375 102.714844 56.84375 95.277344 L 56.84375 89.742188 L 65.914062 89.742188 C 66.855469 89.742188 67.609375 88.988281 67.609375 88.058594 C 67.609375 87.121094 66.855469 86.367188 65.914062 86.367188 L 56.84375 86.367188 L 56.84375 68.496094 L 65.914062 68.496094 C 66.855469 68.496094 67.609375 67.746094 67.609375 66.808594 C 67.609375 65.878906 66.855469 65.125 65.914062 65.125 L 56.84375 65.125 L 56.84375 47.242188 L 118.457031 47.242188 L 118.457031 95.277344 C 118.457031 102.714844 112.394531 108.769531 104.945312 108.769531 Z M 56.84375 26.007812 L 65.914062 26.007812 C 66.855469 26.007812 67.609375 25.25 67.609375 24.3125 C 67.609375 23.382812 66.855469 22.628906 65.914062 22.628906 L 56.84375 22.628906 L 56.84375 17.308594 C 56.84375 9.871094 62.90625 3.816406 70.355469 3.816406 L 104.945312 3.816406 C 112.394531 3.816406 118.457031 9.871094 118.457031 17.308594 L 118.457031 43.863281 L 56.84375 43.863281 Z M 205.3125 129.257812 C 201.902344 125.75 197.152344 123.832031 192.261719 124.03125 C 187.378906 124.210938 182.777344 126.460938 179.640625 130.207031 L 177.214844 133.101562 L 174.796875 130.207031 C 171.664062 126.460938 167.058594 124.210938 162.175781 124.03125 C 157.285156 123.832031 152.53125 125.75 149.125 129.257812 C 143.082031 135.472656 142.609375 145.273438 148.015625 152.050781 L 175.527344 186.496094 L 175.527344 200.039062 C 175.527344 211.683594 170.980469 222.636719 162.710938 230.894531 C 154.453125 239.140625 143.472656 243.683594 131.796875 243.683594 C 107.699219 243.683594 88.089844 224.101562 88.089844 200.039062 L 88.089844 127.394531 L 96.632812 127.394531 C 99.191406 127.394531 101.273438 125.316406 101.273438 122.761719 L 101.273438 112.148438 L 104.945312 112.148438 C 114.265625 112.148438 121.839844 104.582031 121.839844 95.277344 L 121.839844 17.308594 C 121.839844 8.003906 114.265625 0.4375 104.945312 0.4375 L 70.355469 0.4375 C 61.039062 0.4375 53.460938 8.003906 53.460938 17.308594 L 53.460938 95.277344 C 53.460938 104.582031 61.039062 112.148438 70.355469 112.148438 L 74.980469 112.148438 L 74.980469 122.761719 C 74.980469 125.316406 77.0625 127.394531 79.621094 127.394531 L 84.707031 127.394531 L 84.707031 200.039062 C 84.707031 225.96875 105.828125 247.0625 131.796875 247.0625 C 144.375 247.0625 156.207031 242.164062 165.105469 233.28125 C 174.007812 224.390625 178.910156 212.582031 178.910156 200.039062 L 178.910156 186.496094 L 206.417969 152.050781 C 211.832031 145.273438 211.355469 135.476562 205.3125 129.257812 " fill-opacity="1" fill-rule="nonzero" style="&#10;    fill: white;&#10;"/></g>

</svg>