<svg xmlns="http://www.w3.org/2000/svg" xmlns:xlink="http://www.w3.org/1999/xlink" width="330" zoomAndPan="magnify" viewBox="0 0 247.5 247.500006" height="330" preserveAspectRatio="xMidYMid meet" version="1.0"><path fill="white" d="M 89.230469 135.613281 C 89.226562 135.636719 89.222656 135.660156 89.21875 135.683594 C 89.21875 135.695312 89.21875 135.707031 89.214844 135.71875 C 89.207031 135.785156 89.199219 135.855469 89.191406 135.921875 C 89.191406 135.949219 89.203125 135.886719 89.230469 135.613281 Z M 89.230469 135.613281 " fill-opacity="1" fill-rule="nonzero"/><path fill="white" d="M 96.492188 159.609375 C 96.511719 159.632812 96.527344 159.65625 96.546875 159.679688 C 96.566406 159.707031 96.585938 159.730469 96.605469 159.753906 C 96.714844 159.886719 96.851562 160.027344 96.492188 159.609375 Z M 96.492188 159.609375 " fill-opacity="1" fill-rule="nonzero"/><path fill="white" d="M 118.667969 73.347656 C 118.632812 73.390625 118.597656 73.433594 118.558594 73.480469 C 118.550781 73.492188 118.542969 73.507812 118.53125 73.519531 C 118.832031 73.261719 118.773438 73.242188 118.667969 73.347656 Z M 118.667969 73.347656 " fill-opacity="1" fill-rule="nonzero"/><path fill="white" d="M 119.542969 72.570312 C 119.535156 72.570312 119.527344 72.570312 119.519531 72.570312 C 119.496094 72.578125 119.46875 72.582031 119.445312 72.589844 C 119.441406 72.589844 119.4375 72.59375 119.433594 72.59375 C 119.453125 72.59375 119.476562 72.589844 119.496094 72.585938 C 119.507812 72.582031 119.527344 72.574219 119.542969 72.570312 Z M 119.542969 72.570312 " fill-opacity="1" fill-rule="nonzero"/><path fill="white" d="M 97.585938 167.230469 C 100.226562 169.570312 103.152344 171.621094 106.273438 173.269531 C 110.84375 175.679688 115.789062 177.230469 120.941406 177.71875 C 127.074219 178.296875 133.269531 177.132812 138.882812 174.644531 C 143.9375 172.40625 148.492188 168.921875 152.097656 164.742188 C 156.007812 160.199219 158.917969 154.84375 160.300781 148.996094 C 160.96875 146.167969 161.296875 143.257812 161.433594 140.359375 C 161.519531 138.492188 161.582031 136.617188 161.46875 134.75 C 161.269531 131.402344 160.625 128.078125 159.605469 124.882812 C 158.457031 121.289062 156.890625 117.828125 155.113281 114.503906 C 153.070312 110.679688 150.738281 107.011719 148.296875 103.429688 C 145.339844 99.089844 142.214844 94.871094 139.03125 90.691406 C 135.089844 85.511719 131.058594 80.394531 127.023438 75.28125 C 125.945312 73.921875 124.871094 72.5625 123.792969 71.203125 C 122.820312 69.96875 121.839844 68.503906 120.148438 68.246094 C 120.085938 68.238281 120.023438 68.238281 119.960938 68.230469 C 119.832031 68.203125 119.699219 68.179688 119.5625 68.167969 C 117.472656 68 115.863281 69.722656 114.753906 71.253906 C 113.367188 73.164062 112.433594 75.390625 111.527344 77.554688 C 109.382812 82.664062 107.78125 87.980469 105.796875 93.152344 C 105.480469 93.96875 105.160156 94.785156 104.832031 95.597656 C 104.683594 95.960938 104.535156 96.324219 104.386719 96.6875 C 104.3125 96.863281 104.238281 97.042969 104.164062 97.21875 C 104.140625 97.273438 104.117188 97.328125 104.097656 97.378906 C 104.085938 97.40625 104.070312 97.4375 104.054688 97.480469 C 103.460938 98.863281 102.851562 100.238281 102.210938 101.597656 C 101.082031 104.007812 99.875 106.378906 98.585938 108.707031 C 96.574219 112.339844 94.34375 115.832031 92.074219 119.304688 C 90.363281 121.917969 88.609375 124.539062 87.261719 127.363281 C 85.871094 130.285156 84.996094 133.304688 84.722656 136.53125 C 84.320312 141.304688 85.164062 146.277344 86.753906 150.773438 C 88.335938 155.25 90.679688 159.363281 93.644531 163.066406 C 94.839844 164.5625 96.148438 165.960938 97.585938 167.230469 Z M 119.304688 72.636719 C 119.167969 72.65625 119.175781 72.605469 119.25 72.574219 C 119.269531 72.59375 119.289062 72.613281 119.308594 72.636719 C 119.304688 72.636719 119.304688 72.636719 119.304688 72.636719 Z M 119.335938 72.605469 C 119.335938 72.605469 119.34375 72.605469 119.347656 72.605469 C 119.34375 72.605469 119.34375 72.605469 119.34375 72.605469 C 119.339844 72.605469 119.339844 72.605469 119.335938 72.605469 Z M 119.402344 72.597656 C 119.402344 72.597656 119.402344 72.597656 119.40625 72.597656 C 119.417969 72.59375 119.429688 72.589844 119.445312 72.589844 C 119.457031 72.582031 119.46875 72.574219 119.480469 72.566406 C 119.496094 72.566406 119.507812 72.570312 119.519531 72.570312 C 119.59375 72.550781 119.664062 72.527344 119.710938 72.507812 C 119.644531 72.535156 119.59375 72.550781 119.542969 72.570312 C 119.546875 72.570312 119.554688 72.570312 119.5625 72.570312 C 119.539062 72.578125 119.523438 72.582031 119.496094 72.585938 C 119.457031 72.601562 119.429688 72.605469 119.402344 72.613281 C 119.410156 72.609375 119.414062 72.605469 119.421875 72.601562 C 119.425781 72.597656 119.429688 72.597656 119.433594 72.59375 C 119.421875 72.597656 119.414062 72.597656 119.402344 72.597656 Z M 91.703125 151.425781 C 91.703125 151.417969 91.699219 151.414062 91.699219 151.410156 C 91.695312 151.398438 91.691406 151.394531 91.6875 151.382812 C 91.628906 151.234375 91.566406 151.089844 91.511719 150.945312 C 91.273438 150.351562 91.050781 149.75 90.847656 149.140625 C 90.390625 147.800781 90.015625 146.433594 89.722656 145.046875 C 89.574219 144.347656 89.445312 143.640625 89.339844 142.929688 C 89.328125 142.84375 89.21875 142.238281 89.316406 142.789062 C 89.285156 142.605469 89.273438 142.417969 89.25 142.234375 C 89.207031 141.851562 89.171875 141.46875 89.140625 141.082031 C 89.015625 139.476562 89.003906 137.859375 89.15625 136.257812 C 89.167969 136.144531 89.179688 136.035156 89.191406 135.921875 C 89.195312 135.894531 89.207031 135.769531 89.21875 135.683594 C 89.230469 135.605469 89.242188 135.527344 89.25 135.449219 C 89.242188 135.515625 89.238281 135.566406 89.230469 135.613281 C 89.285156 135.265625 89.34375 134.917969 89.414062 134.570312 C 89.546875 133.90625 89.714844 133.25 89.910156 132.601562 C 90.109375 131.933594 90.339844 131.277344 90.601562 130.632812 C 90.617188 130.589844 90.636719 130.546875 90.65625 130.5 C 90.703125 130.386719 90.753906 130.273438 90.804688 130.160156 C 90.953125 129.828125 91.113281 129.496094 91.273438 129.167969 C 91.917969 127.871094 92.644531 126.617188 93.402344 125.386719 C 95.226562 122.425781 97.203125 119.5625 99.042969 116.613281 C 101.585938 112.535156 103.902344 108.324219 105.945312 103.976562 C 108.550781 98.441406 110.679688 92.726562 112.699219 86.957031 C 113.566406 84.484375 114.441406 82.011719 115.425781 79.578125 C 115.539062 79.304688 115.640625 79.019531 115.765625 78.75 C 115.777344 78.726562 115.785156 78.707031 115.792969 78.695312 C 115.851562 78.558594 115.910156 78.421875 115.972656 78.285156 C 116.222656 77.71875 116.480469 77.15625 116.753906 76.597656 C 117.195312 75.695312 117.667969 74.808594 118.222656 73.96875 C 118.320312 73.816406 118.429688 73.667969 118.53125 73.519531 C 118.519531 73.53125 118.511719 73.539062 118.496094 73.550781 C 118.519531 73.53125 118.539062 73.503906 118.558594 73.480469 C 118.570312 73.464844 118.582031 73.449219 118.59375 73.433594 C 118.617188 73.398438 118.644531 73.371094 118.667969 73.347656 C 118.671875 73.339844 118.679688 73.332031 118.683594 73.324219 C 118.886719 73.085938 119.109375 72.875 119.332031 72.664062 C 119.453125 72.792969 119.582031 72.933594 119.605469 72.960938 C 120.175781 73.65625 120.722656 74.371094 121.28125 75.078125 C 122.367188 76.453125 123.457031 77.832031 124.546875 79.207031 C 126.539062 81.730469 128.527344 84.257812 130.503906 86.796875 C 130.964844 87.382812 131.421875 87.96875 131.875 88.558594 C 131.988281 88.703125 132.101562 88.847656 132.214844 88.992188 C 132.234375 89.019531 132.324219 89.132812 132.382812 89.214844 C 132.617188 89.515625 132.851562 89.820312 133.085938 90.125 C 133.941406 91.234375 134.792969 92.347656 135.640625 93.460938 C 137.285156 95.628906 138.914062 97.808594 140.511719 100.007812 C 145.472656 106.84375 150.34375 113.933594 153.730469 121.703125 C 153.804688 121.882812 154.066406 122.617188 153.800781 121.863281 C 153.871094 122.0625 153.964844 122.253906 154.042969 122.449219 C 154.199219 122.835938 154.351562 123.222656 154.5 123.613281 C 154.800781 124.402344 155.082031 125.199219 155.339844 126.003906 C 155.820312 127.515625 156.226562 129.050781 156.53125 130.605469 C 156.605469 130.976562 156.671875 131.347656 156.734375 131.722656 C 156.761719 131.90625 156.792969 132.09375 156.820312 132.277344 C 156.828125 132.339844 156.835938 132.398438 156.847656 132.460938 C 156.9375 133.222656 157.015625 133.984375 157.058594 134.75 C 157.167969 136.546875 157.113281 138.34375 157.035156 140.136719 C 156.976562 141.429688 156.886719 142.71875 156.734375 144 C 156.714844 144.164062 156.695312 144.328125 156.675781 144.488281 C 156.675781 144.496094 156.675781 144.5 156.671875 144.503906 C 156.671875 144.523438 156.667969 144.542969 156.664062 144.566406 C 156.621094 144.847656 156.578125 145.125 156.535156 145.40625 C 156.410156 146.15625 156.261719 146.90625 156.089844 147.648438 C 155.734375 149.1875 155.273438 150.699219 154.710938 152.175781 C 154.636719 152.363281 154.566406 152.546875 154.488281 152.734375 C 154.480469 152.757812 154.390625 152.972656 154.351562 153.0625 C 154.199219 153.410156 154.042969 153.753906 153.878906 154.09375 C 153.523438 154.839844 153.140625 155.574219 152.730469 156.292969 C 152.167969 157.273438 151.558594 158.226562 150.910156 159.152344 C 150.742188 159.390625 150.570312 159.625 150.398438 159.859375 C 150.3125 159.980469 150.222656 160.097656 150.136719 160.214844 C 150.121094 160.230469 150.109375 160.253906 150.089844 160.277344 C 149.773438 160.800781 149.277344 161.28125 148.878906 161.742188 C 148.035156 162.710938 147.144531 163.640625 146.207031 164.523438 C 145.78125 164.917969 145.351562 165.304688 144.910156 165.683594 C 144.667969 165.890625 144.421875 166.09375 144.171875 166.296875 C 144.046875 166.398438 143.921875 166.496094 143.796875 166.597656 C 143.761719 166.625 143.722656 166.65625 143.6875 166.683594 C 143.664062 166.699219 143.640625 166.71875 143.605469 166.746094 C 141.40625 168.367188 139.082031 169.777344 136.578125 170.878906 C 136.554688 170.886719 136.5 170.914062 136.4375 170.941406 C 136.289062 171.007812 136.140625 171.0625 135.988281 171.125 C 135.667969 171.253906 135.339844 171.378906 135.011719 171.496094 C 134.292969 171.757812 133.5625 171.996094 132.828125 172.207031 C 131.371094 172.628906 129.890625 172.949219 128.390625 173.175781 C 128.296875 173.1875 127.699219 173.296875 128.265625 173.195312 C 128.09375 173.226562 127.914062 173.238281 127.738281 173.257812 C 127.390625 173.296875 127.042969 173.328125 126.691406 173.355469 C 126.007812 173.410156 125.324219 173.445312 124.636719 173.457031 C 123.269531 173.480469 121.902344 173.421875 120.542969 173.277344 C 120.382812 173.257812 120.226562 173.242188 120.066406 173.222656 C 120.046875 173.21875 120.019531 173.21875 119.992188 173.214844 C 119.699219 173.207031 119.386719 173.125 119.101562 173.074219 C 118.445312 172.964844 117.796875 172.835938 117.148438 172.6875 C 116 172.425781 114.863281 172.105469 113.746094 171.730469 C 113.210938 171.550781 112.679688 171.355469 112.148438 171.152344 C 111.890625 171.050781 111.636719 170.949219 111.378906 170.84375 C 111.222656 170.777344 111.0625 170.707031 110.90625 170.636719 C 109.917969 170.199219 108.949219 169.714844 108 169.199219 C 106.378906 168.3125 104.816406 167.320312 103.324219 166.234375 C 103.164062 166.121094 103.007812 166.003906 102.851562 165.886719 C 102.695312 165.769531 102.128906 165.3125 102.773438 165.828125 C 102.476562 165.59375 102.175781 165.363281 101.882812 165.121094 C 101.421875 164.746094 100.972656 164.359375 100.527344 163.964844 C 99.988281 163.480469 99.464844 162.980469 98.960938 162.460938 C 98.144531 161.613281 97.371094 160.726562 96.644531 159.804688 C 96.628906 159.789062 96.617188 159.773438 96.605469 159.753906 C 96.589844 159.734375 96.574219 159.714844 96.558594 159.699219 C 96.554688 159.695312 96.550781 159.6875 96.546875 159.679688 C 96.519531 159.644531 96.492188 159.609375 96.460938 159.574219 C 96.472656 159.589844 96.480469 159.597656 96.492188 159.609375 C 96.386719 159.472656 96.285156 159.332031 96.179688 159.195312 C 95.914062 158.832031 95.652344 158.464844 95.398438 158.09375 C 94.800781 157.226562 94.238281 156.335938 93.714844 155.421875 C 93.121094 154.394531 92.574219 153.335938 92.074219 152.253906 C 91.949219 151.980469 91.828125 151.703125 91.703125 151.425781 Z M 91.703125 151.425781 " fill-opacity="1" fill-rule="nonzero"/><path fill="white" d="M 99.476562 141.511719 C 99.464844 141.398438 99.46875 141.425781 99.476562 141.511719 Z M 99.476562 141.511719 " fill-opacity="1" fill-rule="nonzero"/><path fill="white" d="M 111.113281 165.167969 C 112.734375 166.042969 114.4375 166.785156 116.183594 167.375 C 117.277344 167.746094 118.640625 166.953125 118.894531 165.839844 C 119.175781 164.621094 118.527344 163.527344 117.355469 163.132812 C 116.839844 162.957031 116.328125 162.765625 115.820312 162.5625 C 115.785156 162.546875 115.746094 162.53125 115.707031 162.515625 C 115.546875 162.445312 115.382812 162.375 115.222656 162.300781 C 114.804688 162.113281 114.390625 161.914062 113.980469 161.703125 C 113.050781 161.230469 112.144531 160.707031 111.269531 160.140625 C 110.773438 159.816406 110.289062 159.484375 109.8125 159.132812 C 109.699219 159.046875 109.585938 158.960938 109.46875 158.878906 C 109.46875 158.875 109.46875 158.875 109.46875 158.875 C 109.464844 158.875 109.460938 158.871094 109.457031 158.867188 C 109.1875 158.652344 108.917969 158.433594 108.652344 158.207031 C 107.597656 157.3125 106.609375 156.34375 105.695312 155.304688 C 105.449219 155.027344 105.210938 154.746094 104.976562 154.457031 C 104.894531 154.355469 104.816406 154.253906 104.734375 154.152344 C 104.839844 154.28125 104.601562 153.976562 104.519531 153.867188 C 104.03125 153.203125 103.570312 152.523438 103.144531 151.820312 C 102.660156 151.035156 102.21875 150.222656 101.816406 149.394531 C 101.65625 149.0625 101.507812 148.726562 101.359375 148.390625 C 101.332031 148.328125 101.257812 148.152344 101.230469 148.082031 C 101.132812 147.84375 101.042969 147.601562 100.953125 147.359375 C 100.421875 145.917969 100.007812 144.433594 99.714844 142.925781 C 99.636719 142.539062 99.570312 142.148438 99.507812 141.757812 C 99.496094 141.667969 99.484375 141.578125 99.476562 141.511719 C 99.480469 141.550781 99.484375 141.597656 99.492188 141.671875 C 99.476562 141.503906 99.449219 141.335938 99.429688 141.167969 C 99.359375 140.527344 99.304688 139.882812 99.277344 139.242188 C 99.230469 138.265625 99.234375 137.292969 99.285156 136.316406 C 99.34375 135.167969 98.226562 134.066406 97.078125 134.117188 C 95.832031 134.171875 94.941406 135.085938 94.875 136.316406 C 94.574219 142.019531 95.902344 147.816406 98.632812 152.824219 C 101.46875 158.035156 105.898438 162.347656 111.113281 165.167969 Z M 109.628906 159.003906 C 109.585938 158.980469 109.542969 158.941406 109.503906 158.90625 C 109.5625 158.949219 109.632812 159.003906 109.628906 159.003906 Z M 109.628906 159.003906 " fill-opacity="1" fill-rule="nonzero"/><path fill="white" d="M 124.792969 170.632812 C 126.523438 170.632812 128.179688 169.113281 128.101562 167.332031 C 128.019531 165.542969 126.648438 164.027344 124.792969 164.027344 C 123.0625 164.027344 121.40625 165.546875 121.484375 167.332031 C 121.566406 169.121094 122.9375 170.632812 124.792969 170.632812 Z M 124.792969 170.632812 " fill-opacity="1" fill-rule="nonzero"/><path fill="white" d="M 110.773438 210.167969 C 110.199219 210.078125 110.390625 210.117188 110.574219 210.144531 C 110.609375 210.148438 110.644531 210.152344 110.683594 210.160156 C 110.710938 210.164062 110.742188 210.164062 110.773438 210.167969 Z M 110.773438 210.167969 " fill-opacity="1" fill-rule="nonzero"/><path fill="white" d="M 133.089844 210.09375 C 133.148438 210.082031 133.203125 210.074219 133.261719 210.066406 C 133.25 210.066406 133.136719 210.082031 132.832031 210.125 C 132.855469 210.125 132.882812 210.121094 132.910156 210.117188 C 132.96875 210.109375 133.027344 210.101562 133.089844 210.09375 Z M 133.089844 210.09375 " fill-opacity="1" fill-rule="nonzero"/><path fill="white" d="M 90.164062 204.597656 C 90.171875 204.597656 90.179688 204.601562 90.1875 204.605469 C 90.089844 204.5625 89.972656 204.511719 89.882812 204.476562 C 89.929688 204.496094 89.980469 204.519531 90.027344 204.539062 C 90.074219 204.558594 90.117188 204.578125 90.164062 204.597656 Z M 90.164062 204.597656 " fill-opacity="1" fill-rule="nonzero"/><path fill="white" d="M 157.457031 203.308594 C 157.484375 203.300781 157.507812 203.289062 157.535156 203.277344 C 157.203125 203.414062 157.09375 203.457031 157.09375 203.460938 C 157.128906 203.445312 157.164062 203.433594 157.195312 203.417969 C 157.285156 203.382812 157.371094 203.347656 157.457031 203.308594 Z M 157.457031 203.308594 " fill-opacity="1" fill-rule="nonzero"/><g clip-path="url(#956d16ad80)"><path fill="white" d="M 187.984375 189.320312 C 187.578125 188.582031 186.898438 187.996094 186 187.734375 C 177.367188 185.214844 168.320312 183.96875 159.328125 184.054688 C 157.597656 184.074219 155.9375 185.5625 156.019531 187.359375 C 156.027344 187.507812 156.046875 187.65625 156.070312 187.800781 C 156.128906 188.855469 156.6875 189.84375 157.671875 190.472656 C 161.972656 193.214844 166.832031 194.761719 171.761719 195.953125 C 170.144531 196.9375 168.5 197.882812 166.835938 198.785156 C 165.230469 199.652344 163.605469 200.480469 161.964844 201.269531 C 161.113281 201.679688 160.257812 202.074219 159.398438 202.460938 C 158.957031 202.660156 158.515625 202.855469 158.070312 203.046875 C 157.894531 203.125 157.714844 203.199219 157.535156 203.277344 C 157.574219 203.261719 157.609375 203.246094 157.65625 203.226562 C 157.589844 203.253906 157.523438 203.28125 157.457031 203.308594 C 157.4375 203.320312 157.414062 203.328125 157.394531 203.335938 C 157.277344 203.386719 157.09375 203.460938 157.09375 203.460938 C 153.179688 205.074219 149.167969 206.464844 145.082031 207.589844 C 142.839844 208.207031 140.574219 208.75 138.292969 209.203125 C 137.148438 209.433594 136 209.640625 134.847656 209.824219 C 134.320312 209.910156 133.789062 209.988281 133.261719 210.066406 C 133.277344 210.066406 133.097656 210.09375 132.980469 210.109375 C 132.957031 210.109375 132.933594 210.113281 132.910156 210.117188 C 132.839844 210.125 132.765625 210.136719 132.695312 210.148438 C 132.746094 210.140625 132.789062 210.132812 132.832031 210.125 C 132.550781 210.164062 132.269531 210.199219 131.988281 210.230469 C 126.882812 210.839844 121.726562 211.007812 116.59375 210.710938 C 115.28125 210.632812 113.972656 210.527344 112.664062 210.390625 C 112.03125 210.324219 111.402344 210.246094 110.773438 210.167969 C 110.808594 210.175781 110.847656 210.179688 110.890625 210.1875 C 110.820312 210.175781 110.75 210.167969 110.683594 210.160156 C 110.679688 210.160156 110.679688 210.160156 110.675781 210.15625 C 110.648438 210.15625 110.609375 210.148438 110.574219 210.144531 C 110.53125 210.136719 110.488281 210.132812 110.445312 210.125 C 110.035156 210.066406 109.625 210.007812 109.21875 209.941406 C 106.429688 209.503906 103.664062 208.929688 100.9375 208.21875 C 98.941406 207.699219 96.96875 207.113281 95.019531 206.441406 C 94.003906 206.089844 92.996094 205.71875 91.996094 205.328125 C 91.398438 205.097656 90.804688 204.859375 90.210938 204.613281 C 90.203125 204.609375 90.195312 204.609375 90.1875 204.605469 C 90.335938 204.667969 90.421875 204.707031 90.234375 204.625 C 90.210938 204.617188 90.1875 204.605469 90.164062 204.597656 C 90.027344 204.542969 89.878906 204.496094 89.753906 204.425781 C 89.742188 204.417969 89.800781 204.441406 89.882812 204.476562 C 89.574219 204.34375 89.269531 204.210938 88.960938 204.074219 C 82.285156 201.128906 75.941406 197.417969 70.117188 193.019531 C 69.960938 192.902344 69.808594 192.785156 69.652344 192.667969 C 69.585938 192.613281 69.519531 192.5625 69.453125 192.507812 C 68.980469 192.140625 68.511719 191.761719 68.042969 191.382812 C 67.1875 190.683594 66.34375 189.96875 65.511719 189.234375 C 63.734375 187.667969 62.015625 186.027344 60.367188 184.320312 C 58.65625 182.542969 57.019531 180.695312 55.46875 178.777344 C 55.269531 178.535156 55.074219 178.289062 54.878906 178.042969 C 54.835938 177.988281 54.792969 177.933594 54.75 177.875 C 54.75 177.769531 54.175781 177.128906 54.109375 177.042969 C 53.898438 176.757812 53.6875 176.472656 53.476562 176.1875 C 52.707031 175.136719 51.964844 174.070312 51.246094 172.988281 C 49.730469 170.695312 48.324219 168.328125 47.035156 165.898438 C 46.410156 164.726562 45.816406 163.535156 45.25 162.332031 C 44.964844 161.734375 44.691406 161.128906 44.421875 160.523438 C 44.285156 160.222656 44.15625 159.917969 44.023438 159.613281 C 43.976562 159.5 43.792969 159.042969 43.976562 159.5 C 44.175781 160.007812 43.882812 159.28125 43.84375 159.183594 C 41.792969 154.195312 40.21875 149.019531 39.121094 143.746094 C 38.851562 142.453125 38.609375 141.15625 38.398438 139.851562 C 38.304688 139.269531 38.21875 138.683594 38.132812 138.097656 C 38.164062 137.976562 38.074219 137.691406 38.0625 137.570312 C 38.015625 137.207031 37.972656 136.839844 37.929688 136.476562 C 37.625 133.804688 37.4375 131.121094 37.363281 128.433594 C 37.292969 125.691406 37.335938 122.949219 37.5 120.214844 C 37.582031 118.875 37.6875 117.539062 37.824219 116.207031 C 37.890625 115.539062 37.96875 114.871094 38.046875 114.203125 C 38.066406 114.054688 38.085938 113.90625 38.105469 113.757812 C 38.113281 113.6875 38.1875 112.945312 38.132812 113.527344 C 38.078125 114.109375 38.15625 113.375 38.164062 113.300781 C 38.191406 113.113281 38.21875 112.929688 38.246094 112.746094 C 39.050781 107.242188 40.324219 101.8125 42.027344 96.519531 C 42.886719 93.851562 43.851562 91.214844 44.925781 88.625 C 44.976562 88.496094 45.03125 88.367188 45.085938 88.238281 C 45.226562 87.917969 45.363281 87.597656 45.503906 87.277344 C 45.800781 86.601562 46.105469 85.929688 46.414062 85.261719 C 47.007812 83.988281 47.625 82.726562 48.269531 81.476562 C 49.566406 78.953125 50.96875 76.488281 52.457031 74.074219 C 53.367188 72.601562 52.824219 70.375 51.273438 69.554688 C 49.65625 68.703125 47.71875 69.167969 46.746094 70.738281 C 40.589844 80.703125 35.976562 91.695312 33.347656 103.113281 C 30.816406 114.121094 30.027344 125.578125 31.351562 136.804688 C 32.6875 148.140625 35.964844 159.132812 41.324219 169.234375 C 46.253906 178.53125 52.9375 186.945312 60.835938 193.90625 C 67.0625 199.390625 74 204.078125 81.421875 207.796875 C 85.960938 210.074219 90.683594 212.050781 95.539062 213.554688 C 104.84375 216.4375 114.71875 217.734375 124.453125 217.410156 C 134.234375 217.085938 143.96875 215.1875 153.207031 211.976562 C 160.554688 209.421875 167.65625 206.105469 174.335938 202.121094 C 174.621094 204.484375 174.816406 206.859375 174.957031 209.234375 C 175.125 212.117188 175.222656 215.027344 175.90625 217.84375 C 176.0625 218.488281 176.453125 219.054688 176.96875 219.480469 C 177.359375 219.890625 177.855469 220.203125 178.433594 220.332031 C 180.167969 220.726562 182.03125 219.816406 182.503906 218.027344 C 184.765625 209.441406 186.75 200.789062 188.457031 192.074219 C 188.628906 191.195312 188.589844 190.328125 188.121094 189.53125 C 188.082031 189.460938 188.03125 189.390625 187.984375 189.320312 Z M 38.132812 138.09375 C 38.125 138.027344 38.113281 137.960938 38.101562 137.894531 C 38.023438 137.332031 38.128906 137.960938 38.132812 138.09375 Z M 38.132812 138.117188 C 38.132812 138.113281 38.132812 138.101562 38.132812 138.097656 C 38.132812 138.105469 38.132812 138.113281 38.132812 138.117188 Z M 54.746094 177.875 C 54.703125 177.820312 54.664062 177.765625 54.621094 177.714844 C 54.269531 177.265625 54.699219 177.789062 54.746094 177.875 Z M 180.421875 198.34375 C 180.414062 198.304688 180.40625 198.265625 180.402344 198.226562 C 180.417969 198.214844 180.4375 198.203125 180.453125 198.191406 C 180.445312 198.242188 180.433594 198.292969 180.421875 198.34375 Z M 180.421875 198.34375 " fill-opacity="1" fill-rule="nonzero"/></g><g clip-path="url(#3251028fea)"><path fill="white" d="M 216.144531 110.261719 C 214.808594 98.925781 211.53125 87.933594 206.175781 77.832031 C 201.246094 68.53125 194.5625 60.117188 186.664062 53.160156 C 180.4375 47.675781 173.496094 42.984375 166.078125 39.265625 C 161.539062 36.992188 156.8125 35.011719 151.960938 33.507812 C 142.65625 30.625 132.78125 29.332031 123.046875 29.652344 C 113.265625 29.980469 103.527344 31.878906 94.292969 35.089844 C 86.894531 37.660156 79.742188 41.003906 73.023438 45.023438 C 72.910156 45.09375 72.796875 45.164062 72.683594 45.234375 C 72.277344 40.488281 71.820312 35.75 71.316406 31.015625 C 71.335938 30.941406 71.355469 30.867188 71.375 30.792969 C 71.8125 29.125 70.816406 27.128906 69.0625 26.730469 C 67.917969 26.46875 66.71875 26.785156 65.898438 27.539062 C 65.785156 27.625 65.679688 27.71875 65.582031 27.828125 C 65.023438 28.429688 64.519531 29.308594 64.613281 30.160156 C 64.621094 30.246094 64.628906 30.328125 64.636719 30.414062 C 62.523438 38.546875 60.65625 46.742188 59.042969 54.988281 C 58.871094 55.871094 58.910156 56.738281 59.375 57.53125 C 59.417969 57.601562 59.464844 57.671875 59.515625 57.742188 C 59.917969 58.484375 60.601562 59.066406 61.5 59.328125 C 70.132812 61.847656 79.175781 63.09375 88.171875 63.007812 C 88.882812 63 89.578125 62.742188 90.148438 62.320312 C 90.832031 61.875 91.367188 61.207031 91.539062 60.441406 C 91.960938 58.59375 90.980469 56.992188 89.230469 56.378906 C 87.917969 55.917969 86.609375 55.453125 85.324219 54.929688 C 84.203125 54.441406 83.109375 53.898438 82.066406 53.253906 C 80.894531 52.53125 79.777344 51.722656 78.574219 51.050781 C 78.085938 50.777344 77.582031 50.535156 77.070312 50.308594 C 78.257812 49.613281 79.453125 48.933594 80.664062 48.277344 C 82.265625 47.410156 83.890625 46.582031 85.535156 45.792969 C 86.382812 45.386719 87.238281 44.988281 88.097656 44.601562 C 88.539062 44.40625 88.984375 44.210938 89.425781 44.015625 C 89.605469 43.941406 89.785156 43.863281 89.960938 43.789062 C 89.925781 43.804688 89.886719 43.816406 89.84375 43.835938 C 89.910156 43.808594 89.976562 43.78125 90.042969 43.753906 C 90.0625 43.746094 90.082031 43.734375 90.101562 43.726562 C 90.222656 43.675781 90.40625 43.601562 90.40625 43.605469 C 94.320312 41.988281 98.332031 40.601562 102.414062 39.472656 C 104.65625 38.855469 106.921875 38.316406 109.207031 37.859375 C 110.351562 37.632812 111.5 37.421875 112.652344 37.238281 C 113.179688 37.152344 113.707031 37.074219 114.234375 37 C 114.21875 37 114.402344 36.972656 114.515625 36.957031 C 114.539062 36.953125 114.566406 36.949219 114.589844 36.949219 C 114.660156 36.9375 114.730469 36.929688 114.804688 36.917969 C 114.753906 36.925781 114.710938 36.929688 114.667969 36.9375 C 114.949219 36.902344 115.226562 36.867188 115.507812 36.832031 C 120.613281 36.226562 125.773438 36.054688 130.90625 36.355469 C 132.214844 36.429688 133.527344 36.535156 134.832031 36.675781 C 135.464844 36.738281 136.09375 36.816406 136.726562 36.894531 C 136.6875 36.890625 136.652344 36.882812 136.609375 36.875 C 136.675781 36.886719 136.746094 36.894531 136.816406 36.90625 C 136.816406 36.90625 136.820312 36.90625 136.820312 36.90625 C 136.851562 36.910156 136.886719 36.914062 136.925781 36.921875 C 136.96875 36.925781 137.011719 36.933594 137.054688 36.9375 C 137.464844 36.996094 137.871094 37.058594 138.28125 37.121094 C 141.066406 37.558594 143.832031 38.136719 146.5625 38.84375 C 148.554688 39.363281 150.53125 39.953125 152.476562 40.625 C 153.492188 40.972656 154.5 41.34375 155.503906 41.734375 C 156.101562 41.964844 156.695312 42.203125 157.285156 42.449219 C 157.292969 42.453125 157.304688 42.457031 157.3125 42.460938 C 157.164062 42.394531 157.078125 42.359375 157.261719 42.4375 C 157.285156 42.449219 157.308594 42.457031 157.332031 42.46875 C 157.46875 42.519531 157.617188 42.570312 157.742188 42.640625 C 157.757812 42.648438 157.699219 42.625 157.617188 42.589844 C 157.921875 42.71875 158.230469 42.851562 158.535156 42.988281 C 165.210938 45.9375 171.558594 49.648438 177.382812 54.042969 C 177.535156 54.160156 177.691406 54.28125 177.84375 54.398438 C 177.914062 54.449219 177.980469 54.5 178.046875 54.554688 C 178.519531 54.925781 178.988281 55.300781 179.453125 55.679688 C 180.3125 56.382812 181.15625 57.097656 181.984375 57.828125 C 183.765625 59.398438 185.484375 61.035156 187.128906 62.742188 C 188.84375 64.519531 190.480469 66.371094 192.03125 68.289062 C 192.226562 68.53125 192.421875 68.773438 192.617188 69.019531 C 192.660156 69.078125 192.707031 69.132812 192.75 69.1875 C 192.746094 69.296875 193.320312 69.933594 193.386719 70.023438 C 193.601562 70.304688 193.8125 70.589844 194.023438 70.878906 C 194.789062 71.925781 195.53125 72.992188 196.25 74.074219 C 197.769531 76.367188 199.175781 78.734375 200.464844 81.164062 C 201.085938 82.339844 201.683594 83.527344 202.25 84.730469 C 202.53125 85.332031 202.808594 85.933594 203.078125 86.539062 C 203.210938 86.84375 203.34375 87.148438 203.472656 87.449219 C 203.523438 87.5625 203.703125 88.019531 203.523438 87.5625 C 203.324219 87.058594 203.613281 87.785156 203.652344 87.882812 C 205.703125 92.867188 207.28125 98.042969 208.378906 103.320312 C 208.648438 104.609375 208.886719 105.910156 209.101562 107.210938 C 209.195312 107.796875 209.28125 108.382812 209.363281 108.96875 C 209.332031 109.089844 209.421875 109.375 209.4375 109.496094 C 209.484375 109.859375 209.527344 110.222656 209.570312 110.589844 C 209.875 113.257812 210.0625 115.945312 210.132812 118.632812 C 210.207031 121.371094 210.160156 124.113281 209.996094 126.851562 C 209.917969 128.1875 209.808594 129.523438 209.675781 130.859375 C 209.605469 131.527344 209.53125 132.195312 209.449219 132.859375 C 209.429688 133.007812 209.414062 133.15625 209.394531 133.304688 C 209.386719 133.378906 209.3125 134.117188 209.367188 133.535156 C 209.417969 132.953125 209.34375 133.691406 209.332031 133.765625 C 209.308594 133.949219 209.28125 134.132812 209.253906 134.320312 C 208.445312 139.820312 207.175781 145.25 205.472656 150.542969 C 204.613281 153.214844 203.644531 155.847656 202.574219 158.441406 C 202.519531 158.566406 202.46875 158.695312 202.414062 158.824219 C 202.414062 158.824219 202.414062 158.828125 202.410156 158.828125 C 202.273438 159.148438 202.136719 159.46875 201.996094 159.789062 C 201.699219 160.460938 201.394531 161.132812 201.082031 161.804688 C 200.492188 163.078125 199.871094 164.339844 199.230469 165.585938 C 197.933594 168.109375 196.53125 170.578125 195.039062 172.992188 C 194.128906 174.460938 194.671875 176.6875 196.226562 177.507812 C 197.84375 178.363281 199.78125 177.894531 200.75 176.324219 C 206.910156 166.359375 211.523438 155.367188 214.148438 143.949219 C 216.679688 132.945312 217.46875 121.484375 216.144531 110.261719 Z M 192.75 69.191406 C 192.792969 69.242188 192.835938 69.296875 192.878906 69.351562 C 193.230469 69.796875 192.800781 69.273438 192.75 69.191406 Z M 209.367188 108.949219 C 209.363281 108.953125 209.367188 108.960938 209.367188 108.964844 C 209.363281 108.957031 209.367188 108.949219 209.367188 108.949219 Z M 209.367188 108.972656 C 209.375 109.039062 209.386719 109.105469 209.394531 109.171875 C 209.476562 109.734375 209.367188 109.105469 209.367188 108.972656 Z M 209.367188 108.972656 " fill-opacity="1" fill-rule="nonzero"/></g><path fill="white" d="M 136.726562 36.894531 C 137.296875 36.984375 137.109375 36.949219 136.925781 36.921875 C 136.890625 36.914062 136.851562 36.910156 136.816406 36.90625 C 136.785156 36.902344 136.757812 36.898438 136.726562 36.894531 Z M 136.726562 36.894531 " fill-opacity="1" fill-rule="nonzero"/><path fill="white" d="M 157.332031 42.46875 C 157.328125 42.464844 157.320312 42.460938 157.3125 42.460938 C 157.40625 42.5 157.527344 42.550781 157.617188 42.589844 C 157.566406 42.566406 157.519531 42.546875 157.46875 42.527344 C 157.425781 42.507812 157.378906 42.488281 157.332031 42.46875 Z M 157.332031 42.46875 " fill-opacity="1" fill-rule="nonzero"/><path fill="white" d="M 90.042969 43.753906 C 90.015625 43.765625 89.988281 43.777344 89.960938 43.789062 C 90.296875 43.652344 90.40625 43.605469 90.40625 43.605469 C 90.371094 43.617188 90.335938 43.632812 90.300781 43.644531 C 90.214844 43.679688 90.128906 43.71875 90.042969 43.753906 Z M 90.042969 43.753906 " fill-opacity="1" fill-rule="nonzero"/><path fill="white" d="M 114.410156 36.972656 C 114.351562 36.980469 114.292969 36.992188 114.234375 37 C 114.246094 37 114.359375 36.984375 114.667969 36.9375 C 114.640625 36.941406 114.613281 36.945312 114.589844 36.949219 C 114.527344 36.957031 114.46875 36.964844 114.410156 36.972656 Z M 114.410156 36.972656 " fill-opacity="1" fill-rule="nonzero"/>

</svg>