<svg xmlns="http://www.w3.org/2000/svg" xmlns:xlink="http://www.w3.org/1999/xlink" width="330" zoomAndPan="magnify" viewBox="0 0 247.5 247.500006" height="330" preserveAspectRatio="xMidYMid meet" version="1.0"><defs><clipPath id="7eb91680c2"><path d="M 0 0 L 247 0 L 247 247 L 0 247 Z M 0 0 " clip-rule="nonzero"/></clipPath><clipPath id="f2354044c9"><path d="M 174 40.253906 L 207.503906 40.253906 L 207.503906 74 L 174 74 Z M 174 40.253906 " clip-rule="nonzero"/></clipPath><clipPath id="9e5de40937"><path d="M 40.253906 182 L 66 182 L 66 207.503906 L 40.253906 207.503906 Z M 40.253906 182 " clip-rule="nonzero"/></clipPath></defs><path stroke-linecap="round" transform="matrix(2.806208, 0, 0, 2.806208, 39.69077, 39.690783)" fill="none" stroke-linejoin="round" d="M 21.179553 48.060518 L 46.739512 22.500559 C 46.889848 22.350223 47.030441 22.194318 47.165465 22.030062 C 47.299097 21.867198 47.424378 21.697373 47.541306 21.521981 C 47.659626 21.346588 47.768202 21.164236 47.867035 20.9791 C 47.967259 20.792571 48.056347 20.601867 48.137083 20.405594 C 48.217819 20.210714 48.288812 20.011658 48.35006 19.809817 C 48.411308 19.607977 48.462812 19.40196 48.504572 19.195944 C 48.54494 18.988535 48.575564 18.779735 48.596444 18.569542 C 48.617324 18.357958 48.627068 18.147766 48.627068 17.936181 C 48.627068 17.724597 48.617324 17.514404 48.596444 17.304212 C 48.575564 17.094019 48.543548 16.885219 48.50318 16.67781 C 48.46142 16.470402 48.409916 16.265777 48.348668 16.063937 C 48.28742 15.862097 48.216427 15.66304 48.134299 15.46816 C 48.053563 15.271887 47.963083 15.081183 47.864251 14.894655 C 47.764026 14.709518 47.65545 14.528558 47.538522 14.351773 C 47.420202 14.176381 47.294921 14.006557 47.159897 13.843692 C 47.026265 13.680828 46.88428 13.524924 46.735336 13.374587 C 46.585 13.225643 46.429095 13.083659 46.266231 12.950026 C 46.101975 12.816394 45.93215 12.689722 45.756758 12.572793 C 45.581366 12.455865 45.400405 12.347289 45.213877 12.248457 C 45.027348 12.148233 44.836644 12.057752 44.640372 11.977016 C 44.445491 11.89628 44.246435 11.825288 44.044594 11.76404 C 43.842754 11.702792 43.638129 11.652679 43.430721 11.610919 C 43.223313 11.569159 43.014512 11.538535 42.80432 11.519047 C 42.594127 11.498167 42.382543 11.487031 42.170958 11.487031 C 41.960766 11.488423 41.749181 11.498167 41.538989 11.519047 C 41.328796 11.539927 41.119996 11.570551 40.912588 11.612311 C 40.705179 11.654071 40.500555 11.705576 40.298714 11.766824 C 40.096874 11.828072 39.897817 11.899064 39.702937 11.9798 C 39.506664 12.060536 39.31596 12.151017 39.130824 12.251241 C 38.944295 12.351465 38.763335 12.460041 38.587942 12.576969 C 38.411158 12.693898 38.242726 12.82057 38.078469 12.954202 C 37.915605 13.089227 37.759701 13.229819 37.609364 13.380155 L 12.060541 38.940115 " stroke="white" stroke-width="1.5" stroke-opacity="1" stroke-miterlimit="4"/><path stroke-linecap="round" transform="matrix(2.806208, 0, 0, 2.806208, 39.69077, 39.690783)" fill="none" stroke-linejoin="round" d="M 22.7901 28.149307 L 31.929992 37.319823 " stroke="white" stroke-width="1.5" stroke-opacity="1" stroke-miterlimit="4"/><path stroke-linecap="round" transform="matrix(2.806208, 0, 0, 2.806208, 39.69077, 39.690783)" fill="none" stroke-linejoin="round" d="M 6.919874 57.530315 L 18.750507 45.689937 " stroke="white" stroke-width="1.5" stroke-opacity="1" stroke-miterlimit="4"/><path stroke-linecap="round" transform="matrix(2.806208, 0, 0, 2.806208, 39.69077, 39.690783)" fill="none" stroke-linejoin="round" d="M 14.419986 41.370552 L 2.589352 53.199794 " stroke="white" stroke-width="1.5" stroke-opacity="1" stroke-miterlimit="4"/><path stroke-linecap="round" transform="matrix(2.806208, 0, 0, 2.806208, 39.69077, 39.690783)" fill="none" stroke-linejoin="round" d="M 47.900443 15.000447 L 48.899901 13.999597 C 48.988989 13.907724 49.066941 13.8075 49.136541 13.700316 C 49.206141 13.593132 49.264606 13.480379 49.313326 13.362059 C 49.360654 13.242347 49.396846 13.121243 49.42051 12.99457 C 49.445566 12.86929 49.456702 12.742618 49.456702 12.614554 C 49.456702 12.486489 49.445566 12.359817 49.42051 12.234537 C 49.396846 12.109256 49.360654 11.98676 49.313326 11.86844 C 49.264606 11.75012 49.206141 11.637367 49.136541 11.530183 C 49.066941 11.421607 48.988989 11.322775 48.899901 11.229511 C 48.808029 11.141814 48.707804 11.063862 48.60062 10.995654 C 48.493436 10.926054 48.382076 10.86759 48.263755 10.820262 C 48.145435 10.772934 48.022939 10.738134 47.899051 10.713077 C 47.77377 10.689413 47.647098 10.678277 47.520426 10.678277 C 47.392362 10.678277 47.267081 10.689413 47.141801 10.713077 C 47.016521 10.738134 46.895416 10.772934 46.777096 10.820262 C 46.658776 10.86759 46.546024 10.926054 46.438839 10.995654 C 46.331655 11.063862 46.232823 11.141814 46.139559 11.229511 L 45.140101 12.230361 " stroke="white" stroke-width="1.5" stroke-opacity="1" stroke-miterlimit="4"/><path stroke-linecap="round" transform="matrix(2.806208, 0, 0, 2.806208, 39.69077, 39.690783)" fill="none" stroke-linejoin="round" d="M 32.979562 29.069421 L 27.46027 23.550129 " stroke="white" stroke-width="1.5" stroke-opacity="1" stroke-miterlimit="4"/><path stroke-linecap="round" transform="matrix(2.806208, 0, 0, 2.806208, 39.69077, 39.690783)" fill="none" stroke-linejoin="round" d="M 36.339858 25.710518 L 30.80943 20.189834 " stroke="white" stroke-width="1.5" stroke-opacity="1" stroke-miterlimit="4"/><path stroke-linecap="round" transform="matrix(2.806208, 0, 0, 2.806208, 39.69077, 39.690783)" fill="none" stroke-linejoin="round" d="M 39.779497 22.269486 L 34.250461 16.750195 " stroke="white" stroke-width="1.5" stroke-opacity="1" stroke-miterlimit="4"/><path stroke-linecap="round" transform="matrix(2.806208, 0, 0, 2.806208, 39.69077, 39.690783)" fill="none" stroke-linejoin="round" d="M 42.910112 19.140264 L 37.389428 13.61958 " stroke="white" stroke-width="1.5" stroke-opacity="1" stroke-miterlimit="4"/><g clip-path="url(#f2354044c9)"><path stroke-linecap="round" transform="matrix(2.806208, 0, 0, 2.806208, 39.69077, 39.690783)" fill="none" stroke-linejoin="round" d="M 48.830301 11.210023 L 59.000275 1.040048 " stroke="white" stroke-width="1.5" stroke-opacity="1" stroke-miterlimit="4"/></g><g clip-path="url(#9e5de40937)"><path stroke-linecap="round" transform="matrix(2.806208, 0, 0, 2.806208, 39.69077, 39.690783)" fill="none" stroke-linejoin="round" d="M 0.999685 51.610126 L 8.349461 58.959902 " stroke="white" stroke-width="1.5" stroke-opacity="1" stroke-miterlimit="4"/></g><path stroke-linecap="round" transform="matrix(2.806208, 0, 0, 2.806208, 39.69077, 39.690783)" fill="none" stroke-linejoin="round" d="M 8.449685 35.350139 L 24.630328 51.519646 " stroke="white" stroke-width="1.5" stroke-opacity="1" stroke-miterlimit="4"/>

</svg>