<svg xmlns="http://www.w3.org/2000/svg" xmlns:xlink="http://www.w3.org/1999/xlink" width="330" zoomAndPan="magnify" viewBox="0 0 247.5 247.500006" height="330" preserveAspectRatio="xMidYMid meet" version="1.0"><defs><clipPath id="4a3ebc5b7d"><path d="M 0 0 L 247 0 L 247 247 L 0 247 Z M 0 0 " clip-rule="nonzero"/></clipPath></defs><path fill="white" d="M 180.667969 41.765625 C 180.664062 40.554688 180.609375 39.34375 180.496094 38.136719 C 180.386719 36.929688 180.21875 35.730469 179.996094 34.535156 C 179.777344 33.34375 179.5 32.164062 179.171875 31 C 178.84375 29.832031 178.460938 28.683594 178.027344 27.550781 C 177.59375 26.417969 177.109375 25.308594 176.574219 24.21875 C 176.039062 23.132812 175.457031 22.070312 174.824219 21.039062 C 174.191406 20.003906 173.511719 19 172.789062 18.027344 C 172.066406 17.054688 171.296875 16.117188 170.488281 15.214844 C 169.679688 14.3125 168.832031 13.449219 167.941406 12.625 C 167.054688 11.800781 166.128906 11.019531 165.171875 10.277344 C 164.210938 9.539062 163.21875 8.84375 162.195312 8.195312 C 161.171875 7.542969 160.121094 6.941406 159.042969 6.390625 C 157.964844 5.835938 156.863281 5.332031 155.738281 4.878906 C 154.617188 4.429688 153.472656 4.027344 152.3125 3.679688 C 151.152344 3.332031 149.976562 3.035156 148.789062 2.796875 C 147.601562 2.554688 146.40625 2.367188 145.203125 2.238281 C 143.996094 2.105469 142.789062 2.03125 141.578125 2.007812 C 140.367188 1.988281 139.15625 2.023438 137.949219 2.113281 C 136.738281 2.199219 135.539062 2.34375 134.34375 2.546875 C 133.148438 2.746094 131.964844 3 130.792969 3.304688 C 129.621094 3.613281 128.464844 3.972656 127.324219 4.386719 C 126.1875 4.800781 125.070312 5.265625 123.972656 5.78125 C 122.875 6.296875 121.804688 6.863281 120.757812 7.476562 C 119.714844 8.089844 118.699219 8.75 117.714844 9.453125 C 116.730469 10.160156 115.777344 10.910156 114.863281 11.703125 C 113.945312 12.496094 113.066406 13.332031 112.226562 14.203125 C 111.386719 15.078125 110.589844 15.988281 109.832031 16.933594 C 109.074219 17.882812 108.363281 18.859375 107.695312 19.871094 C 107.027344 20.882812 106.40625 21.925781 105.832031 22.992188 C 105.261719 24.0625 104.738281 25.152344 104.265625 26.269531 C 103.792969 27.386719 103.371094 28.523438 103.003906 29.675781 C 102.632812 30.832031 102.316406 32 102.054688 33.183594 C 101.792969 34.367188 101.585938 35.5625 101.429688 36.761719 C 101.277344 37.964844 101.179688 39.171875 101.136719 40.386719 C 101.09375 41.597656 101.105469 42.808594 101.171875 44.019531 C 101.238281 45.230469 101.363281 46.433594 101.539062 47.632812 C 101.714844 48.832031 101.949219 50.023438 102.234375 51.199219 C 102.519531 52.378906 102.859375 53.539062 103.25 54.6875 C 103.644531 55.835938 104.085938 56.960938 104.582031 58.070312 C 105.078125 59.175781 105.621094 60.257812 106.214844 61.3125 C 106.808594 62.371094 107.449219 63.398438 108.136719 64.394531 C 108.828125 65.394531 109.558594 66.359375 110.335938 67.289062 C 111.109375 68.222656 111.925781 69.117188 112.785156 69.972656 C 113.640625 70.828125 114.535156 71.644531 115.46875 72.417969 C 116.398438 73.195312 117.367188 73.925781 118.363281 74.613281 C 119.363281 75.296875 120.390625 75.9375 121.449219 76.53125 C 122.503906 77.121094 123.585938 77.664062 124.695312 78.160156 C 125.800781 78.652344 126.929688 79.09375 128.074219 79.484375 L 110.773438 79.484375 C 110.140625 79.488281 109.515625 79.550781 108.898438 79.675781 C 108.277344 79.800781 107.679688 79.984375 107.09375 80.226562 C 106.511719 80.472656 105.960938 80.769531 105.433594 81.121094 C 104.910156 81.472656 104.425781 81.871094 103.980469 82.320312 C 103.535156 82.765625 103.136719 83.253906 102.785156 83.777344 C 102.4375 84.304688 102.140625 84.859375 101.898438 85.441406 C 101.660156 86.027344 101.476562 86.628906 101.355469 87.246094 C 101.230469 87.867188 101.167969 88.492188 101.167969 89.125 L 101.167969 106.347656 C 95.328125 104.765625 89.382812 103.972656 83.332031 103.96875 C 82.03125 103.964844 80.730469 104 79.429688 104.070312 C 78.132812 104.136719 76.835938 104.246094 75.542969 104.390625 C 74.25 104.53125 72.960938 104.714844 71.675781 104.929688 C 70.394531 105.144531 69.117188 105.398438 67.851562 105.6875 C 66.582031 105.976562 65.320312 106.300781 64.070312 106.660156 C 62.820312 107.019531 61.582031 107.414062 60.351562 107.84375 C 59.125 108.277344 57.910156 108.738281 56.707031 109.238281 C 55.507812 109.738281 54.320312 110.269531 53.148438 110.835938 C 51.976562 111.402344 50.820312 112 49.683594 112.632812 C 48.542969 113.265625 47.425781 113.925781 46.324219 114.621094 C 45.222656 115.316406 44.144531 116.042969 43.085938 116.796875 C 42.023438 117.554688 40.988281 118.339844 39.972656 119.152344 C 38.957031 119.96875 37.964844 120.808594 37 121.679688 C 36.03125 122.550781 35.089844 123.449219 34.171875 124.371094 C 33.253906 125.296875 32.367188 126.246094 31.503906 127.21875 C 30.640625 128.195312 29.804688 129.191406 28.996094 130.214844 C 28.191406 131.234375 27.414062 132.277344 26.664062 133.34375 C 25.917969 134.410156 25.199219 135.496094 24.515625 136.601562 C 23.828125 137.707031 23.171875 138.832031 22.550781 139.976562 C 21.925781 141.117188 21.335938 142.277344 20.777344 143.453125 C 20.222656 144.628906 19.699219 145.820312 19.207031 147.027344 C 18.71875 148.234375 18.261719 149.453125 17.839844 150.683594 C 17.421875 151.917969 17.035156 153.160156 16.683594 154.414062 C 16.332031 155.667969 16.015625 156.929688 15.738281 158.203125 C 15.457031 159.472656 15.214844 160.75 15.007812 162.039062 C 14.800781 163.324219 14.628906 164.613281 14.496094 165.90625 C 14.359375 167.203125 14.261719 168.5 14.203125 169.800781 C 14.140625 171.101562 14.117188 172.402344 14.128906 173.703125 C 14.140625 175.007812 14.191406 176.308594 14.277344 177.605469 C 14.363281 178.90625 14.484375 180.203125 14.644531 181.492188 C 14.804688 182.785156 15 184.074219 15.230469 185.355469 C 15.464844 186.632812 15.730469 187.910156 16.035156 189.175781 C 16.339844 190.441406 16.679688 191.695312 17.054688 192.945312 C 17.429688 194.191406 17.835938 195.425781 18.28125 196.648438 C 18.726562 197.871094 19.207031 199.082031 19.71875 200.277344 C 20.230469 201.476562 20.777344 202.65625 21.359375 203.824219 C 21.9375 204.988281 22.550781 206.136719 23.195312 207.265625 C 23.839844 208.398438 24.515625 209.511719 25.222656 210.601562 C 25.929688 211.695312 26.667969 212.765625 27.4375 213.816406 C 28.207031 214.867188 29.003906 215.898438 29.828125 216.902344 C 30.65625 217.910156 31.507812 218.890625 32.390625 219.847656 C 33.273438 220.804688 34.179688 221.738281 35.117188 222.644531 C 36.050781 223.550781 37.007812 224.429688 37.992188 225.28125 C 38.976562 226.132812 39.984375 226.957031 41.015625 227.75 C 42.046875 228.546875 43.097656 229.308594 44.171875 230.046875 C 45.246094 230.78125 46.339844 231.484375 47.453125 232.160156 C 48.566406 232.832031 49.699219 233.472656 50.847656 234.082031 C 52 234.691406 53.164062 235.269531 54.347656 235.8125 C 55.527344 236.355469 56.726562 236.863281 57.9375 237.339844 C 59.148438 237.816406 60.371094 238.257812 61.609375 238.664062 C 62.84375 239.070312 64.089844 239.441406 65.347656 239.777344 C 66.605469 240.113281 67.871094 240.414062 69.144531 240.675781 C 70.417969 240.941406 71.699219 241.167969 72.988281 241.363281 C 74.273438 241.554688 75.566406 241.707031 76.863281 241.828125 C 78.15625 241.945312 79.457031 242.027344 80.753906 242.074219 C 82.054688 242.117188 83.355469 242.128906 84.65625 242.097656 C 85.957031 242.070312 87.257812 242.003906 88.554688 241.902344 C 89.851562 241.800781 91.144531 241.664062 92.433594 241.488281 C 93.722656 241.3125 95.007812 241.101562 96.285156 240.855469 C 97.5625 240.609375 98.832031 240.324219 100.09375 240.003906 C 101.355469 239.683594 102.605469 239.332031 103.847656 238.941406 C 105.089844 238.550781 106.320312 238.125 107.535156 237.664062 C 108.753906 237.207031 109.957031 236.710938 111.144531 236.183594 C 112.335938 235.65625 113.507812 235.09375 114.667969 234.5 C 114.785156 235.03125 114.949219 235.550781 115.15625 236.058594 C 115.359375 236.5625 115.609375 237.046875 115.894531 237.511719 C 116.183594 237.972656 116.507812 238.410156 116.871094 238.820312 C 117.234375 239.226562 117.625 239.601562 118.050781 239.945312 C 118.476562 240.285156 118.925781 240.589844 119.402344 240.855469 C 119.878906 241.121094 120.375 241.347656 120.890625 241.527344 C 121.402344 241.710938 121.929688 241.847656 122.464844 241.941406 C 123.003906 242.035156 123.546875 242.085938 124.089844 242.085938 L 157.714844 242.085938 C 158.34375 242.082031 158.964844 242.011719 159.582031 241.886719 C 160.199219 241.757812 160.796875 241.570312 161.375 241.328125 C 161.953125 241.082031 162.503906 240.785156 163.023438 240.429688 C 163.542969 240.078125 164.027344 239.679688 164.46875 239.230469 C 164.910156 238.785156 165.304688 238.300781 165.652344 237.773438 C 166 237.25 166.292969 236.699219 166.535156 236.117188 C 166.773438 235.535156 166.953125 234.933594 167.074219 234.316406 C 167.199219 233.699219 167.257812 233.078125 167.257812 232.449219 L 167.257812 172.417969 C 167.25 171.898438 167.351562 171.398438 167.558594 170.921875 C 167.765625 170.445312 168.0625 170.03125 168.449219 169.679688 C 169.15625 168.953125 170.019531 168.59375 171.035156 168.609375 C 171.667969 168.609375 172.292969 168.542969 172.910156 168.417969 C 173.53125 168.292969 174.132812 168.109375 174.714844 167.867188 C 175.300781 167.625 175.855469 167.328125 176.378906 166.976562 C 176.902344 166.625 177.390625 166.226562 177.835938 165.777344 C 178.285156 165.332031 178.683594 164.84375 179.035156 164.320312 C 179.386719 163.792969 179.683594 163.238281 179.925781 162.65625 C 180.167969 162.070312 180.351562 161.46875 180.476562 160.847656 C 180.601562 160.230469 180.664062 159.601562 180.667969 158.972656 L 180.667969 89.125 C 180.667969 88.492188 180.605469 87.863281 180.480469 87.242188 C 180.359375 86.621094 180.175781 86.019531 179.933594 85.433594 C 179.691406 84.851562 179.394531 84.296875 179.042969 83.769531 C 178.691406 83.242188 178.292969 82.757812 177.84375 82.308594 C 177.398438 81.859375 176.910156 81.460938 176.386719 81.109375 C 175.859375 80.757812 175.304688 80.460938 174.71875 80.21875 C 174.136719 79.976562 173.535156 79.792969 172.914062 79.671875 C 172.292969 79.546875 171.667969 79.484375 171.035156 79.484375 L 153.761719 79.484375 C 155.714844 78.816406 157.605469 78 159.429688 77.039062 C 161.253906 76.078125 162.996094 74.976562 164.652344 73.746094 C 166.304688 72.511719 167.855469 71.15625 169.300781 69.683594 C 170.746094 68.207031 172.066406 66.628906 173.265625 64.949219 C 174.464844 63.265625 175.527344 61.503906 176.453125 59.65625 C 177.375 57.808594 178.152344 55.902344 178.78125 53.9375 C 179.410156 51.96875 179.878906 49.964844 180.195312 47.925781 C 180.511719 45.882812 180.667969 43.832031 180.667969 41.765625 Z M 20.125 172.921875 C 20.128906 170.859375 20.234375 168.796875 20.441406 166.742188 C 20.648438 164.6875 20.953125 162.648438 21.359375 160.625 C 21.765625 158.601562 22.269531 156.601562 22.871094 154.625 C 23.476562 152.648438 24.171875 150.710938 24.964844 148.800781 C 25.757812 146.894531 26.640625 145.03125 27.617188 143.214844 C 28.59375 141.394531 29.65625 139.625 30.804688 137.910156 C 31.953125 136.195312 33.183594 134.539062 34.496094 132.945312 C 35.808594 131.351562 37.195312 129.824219 38.65625 128.367188 C 40.117188 126.910156 41.644531 125.527344 43.242188 124.21875 C 44.839844 122.910156 46.496094 121.683594 48.214844 120.539062 C 49.929688 119.394531 51.699219 118.335938 53.519531 117.363281 C 55.34375 116.390625 57.207031 115.511719 59.113281 114.722656 C 61.023438 113.9375 62.964844 113.242188 64.9375 112.644531 C 66.914062 112.046875 68.914062 111.550781 70.9375 111.148438 C 72.964844 110.746094 75.003906 110.445312 77.054688 110.246094 C 79.109375 110.046875 81.167969 109.945312 83.234375 109.945312 C 85.296875 109.949219 87.355469 110.050781 89.410156 110.253906 C 91.460938 110.460938 93.5 110.761719 95.523438 111.167969 C 97.546875 111.570312 99.546875 112.074219 101.523438 112.675781 C 103.496094 113.273438 105.4375 113.972656 107.34375 114.761719 C 109.25 115.554688 111.113281 116.4375 112.933594 117.410156 C 114.753906 118.382812 116.519531 119.445312 118.234375 120.59375 C 119.949219 121.742188 121.605469 122.972656 123.199219 124.28125 C 124.796875 125.589844 126.324219 126.976562 127.78125 128.4375 C 129.242188 129.898438 130.625 131.425781 131.933594 133.023438 C 133.242188 134.621094 134.46875 136.277344 135.617188 137.992188 C 136.761719 139.710938 137.820312 141.480469 138.792969 143.300781 C 139.769531 145.121094 140.648438 146.988281 141.4375 148.894531 C 142.230469 150.800781 142.921875 152.742188 143.523438 154.71875 C 144.121094 156.695312 144.621094 158.695312 145.027344 160.722656 C 145.429688 162.746094 145.730469 164.785156 145.933594 166.84375 C 146.136719 168.898438 146.238281 170.957031 146.238281 173.023438 C 146.242188 175.085938 146.140625 177.148438 145.9375 179.203125 C 145.738281 181.257812 145.433594 183.296875 145.035156 185.324219 C 144.632812 187.347656 144.132812 189.347656 143.535156 191.324219 C 142.9375 193.300781 142.242188 195.246094 141.453125 197.152344 C 140.664062 199.0625 139.785156 200.925781 138.8125 202.746094 C 137.84375 204.570312 136.785156 206.339844 135.636719 208.058594 C 134.492188 209.773438 133.265625 211.433594 131.957031 213.03125 C 130.652344 214.628906 129.265625 216.15625 127.808594 217.617188 C 126.351562 219.078125 124.824219 220.464844 123.230469 221.777344 C 121.636719 223.089844 119.984375 224.320312 118.269531 225.46875 C 116.554688 226.617188 114.785156 227.679688 112.96875 228.65625 C 111.148438 229.628906 109.285156 230.515625 107.378906 231.304688 C 105.472656 232.097656 103.535156 232.796875 101.558594 233.398438 C 99.585938 234 97.585938 234.503906 95.5625 234.910156 C 93.539062 235.3125 91.5 235.617188 89.449219 235.824219 C 87.394531 236.03125 85.335938 236.132812 83.273438 236.136719 C 81.207031 236.132812 79.148438 236.03125 77.09375 235.824219 C 75.039062 235.621094 73 235.3125 70.976562 234.910156 C 68.953125 234.503906 66.953125 234 64.976562 233.398438 C 63.003906 232.796875 61.0625 232.101562 59.15625 231.308594 C 57.25 230.519531 55.386719 229.632812 53.566406 228.660156 C 51.746094 227.683594 49.976562 226.625 48.261719 225.476562 C 46.546875 224.328125 44.890625 223.097656 43.292969 221.789062 C 41.699219 220.476562 40.171875 219.089844 38.710938 217.628906 C 37.25 216.167969 35.867188 214.640625 34.554688 213.042969 C 33.246094 211.449219 32.019531 209.792969 30.871094 208.074219 C 29.722656 206.355469 28.660156 204.589844 27.6875 202.765625 C 26.714844 200.945312 25.832031 199.082031 25.039062 197.171875 C 24.25 195.265625 23.550781 193.324219 22.949219 191.347656 C 22.351562 189.371094 21.847656 187.371094 21.441406 185.34375 C 21.039062 183.320312 20.734375 181.277344 20.527344 179.222656 C 20.324219 177.167969 20.21875 175.105469 20.214844 173.042969 Z M 174.722656 89.003906 L 174.722656 159.089844 C 174.71875 159.578125 174.621094 160.046875 174.433594 160.496094 C 174.242188 160.945312 173.976562 161.34375 173.632812 161.691406 C 173.289062 162.035156 172.890625 162.300781 172.441406 162.488281 C 171.992188 162.679688 171.523438 162.773438 171.035156 162.777344 C 170.398438 162.773438 169.765625 162.828125 169.140625 162.949219 C 168.515625 163.066406 167.910156 163.246094 167.320312 163.488281 C 166.730469 163.726562 166.171875 164.019531 165.640625 164.371094 C 165.109375 164.722656 164.617188 165.121094 164.164062 165.570312 C 163.714844 166.019531 163.308594 166.507812 162.953125 167.035156 C 162.597656 167.5625 162.300781 168.121094 162.054688 168.707031 C 161.808594 169.296875 161.625 169.902344 161.5 170.527344 C 161.375 171.148438 161.3125 171.78125 161.3125 172.417969 L 161.3125 232.449219 C 161.308594 232.9375 161.210938 233.40625 161.023438 233.855469 C 160.835938 234.304688 160.570312 234.703125 160.222656 235.046875 C 159.878906 235.390625 159.480469 235.660156 159.03125 235.847656 C 158.582031 236.035156 158.113281 236.132812 157.625 236.136719 L 124.089844 236.136719 C 123.601562 236.136719 123.132812 236.042969 122.679688 235.855469 C 122.230469 235.667969 121.832031 235.402344 121.484375 235.054688 C 121.140625 234.710938 120.871094 234.3125 120.683594 233.859375 C 120.5 233.40625 120.40625 232.9375 120.40625 232.449219 L 120.40625 231.199219 C 123.097656 229.476562 125.660156 227.578125 128.089844 225.5 C 130.523438 223.421875 132.796875 221.183594 134.917969 218.789062 C 137.035156 216.394531 138.980469 213.863281 140.75 211.199219 C 142.515625 208.535156 144.09375 205.761719 145.476562 202.875 C 146.859375 199.992188 148.035156 197.027344 149.007812 193.980469 C 149.976562 190.929688 150.734375 187.832031 151.273438 184.679688 C 151.8125 181.527344 152.132812 178.351562 152.230469 175.152344 C 152.332031 171.957031 152.210938 168.765625 151.867188 165.585938 C 151.523438 162.40625 150.960938 159.265625 150.179688 156.164062 C 149.398438 153.0625 148.410156 150.027344 147.207031 147.0625 C 146.007812 144.101562 144.605469 141.234375 143.007812 138.464844 C 141.40625 135.695312 139.625 133.046875 137.65625 130.527344 C 135.691406 128.003906 133.558594 125.632812 131.261719 123.40625 C 128.964844 121.179688 126.523438 119.125 123.941406 117.238281 C 121.359375 115.355469 118.660156 113.65625 115.84375 112.144531 C 113.023438 110.636719 110.117188 109.328125 107.117188 108.222656 L 107.117188 89.125 C 107.117188 88.636719 107.207031 88.167969 107.394531 87.71875 C 107.578125 87.269531 107.84375 86.871094 108.183594 86.527344 C 108.527344 86.179688 108.921875 85.914062 109.371094 85.722656 C 109.820312 85.535156 110.285156 85.4375 110.773438 85.433594 L 171.035156 85.433594 C 171.523438 85.4375 171.992188 85.535156 172.441406 85.722656 C 172.890625 85.914062 173.289062 86.179688 173.632812 86.523438 C 173.976562 86.867188 174.242188 87.265625 174.433594 87.714844 C 174.621094 88.167969 174.71875 88.636719 174.722656 89.125 Z M 140.917969 75.707031 C 139.808594 75.707031 138.707031 75.65625 137.601562 75.546875 C 136.5 75.441406 135.40625 75.277344 134.320312 75.0625 C 133.234375 74.847656 132.160156 74.582031 131.097656 74.257812 C 130.039062 73.9375 128.996094 73.566406 127.972656 73.144531 C 126.949219 72.722656 125.949219 72.25 124.972656 71.726562 C 123.996094 71.207031 123.042969 70.636719 122.125 70.023438 C 121.203125 69.410156 120.3125 68.75 119.457031 68.046875 C 118.597656 67.34375 117.777344 66.601562 116.992188 65.820312 C 116.210938 65.039062 115.464844 64.21875 114.761719 63.363281 C 114.058594 62.507812 113.398438 61.617188 112.78125 60.699219 C 112.164062 59.777344 111.59375 58.828125 111.070312 57.851562 C 110.546875 56.875 110.074219 55.875 109.648438 54.851562 C 109.222656 53.828125 108.847656 52.785156 108.527344 51.726562 C 108.203125 50.664062 107.933594 49.59375 107.714844 48.503906 C 107.496094 47.417969 107.335938 46.324219 107.222656 45.222656 C 107.113281 44.117188 107.058594 43.011719 107.054688 41.90625 C 107.054688 40.796875 107.105469 39.691406 107.214844 38.585938 C 107.320312 37.484375 107.480469 36.390625 107.695312 35.300781 C 107.910156 34.214844 108.179688 33.140625 108.496094 32.078125 C 108.816406 31.019531 109.1875 29.976562 109.609375 28.949219 C 110.03125 27.925781 110.503906 26.925781 111.023438 25.945312 C 111.546875 24.96875 112.113281 24.015625 112.726562 23.09375 C 113.339844 22.171875 113.996094 21.28125 114.699219 20.425781 C 115.398438 19.566406 116.140625 18.746094 116.921875 17.960938 C 117.707031 17.175781 118.523438 16.429688 119.378906 15.726562 C 120.234375 15.019531 121.121094 14.359375 122.039062 13.742188 C 122.960938 13.125 123.910156 12.554688 124.882812 12.027344 C 125.859375 11.503906 126.859375 11.03125 127.882812 10.605469 C 128.90625 10.175781 129.945312 9.800781 131.003906 9.480469 C 132.0625 9.15625 133.136719 8.882812 134.222656 8.664062 C 135.308594 8.449219 136.402344 8.28125 137.503906 8.171875 C 138.605469 8.0625 139.710938 8.003906 140.820312 8.003906 C 141.925781 8 143.03125 8.050781 144.132812 8.160156 C 145.238281 8.265625 146.332031 8.425781 147.417969 8.636719 C 148.503906 8.851562 149.578125 9.121094 150.640625 9.4375 C 151.699219 9.757812 152.742188 10.128906 153.765625 10.550781 C 154.792969 10.972656 155.792969 11.445312 156.769531 11.964844 C 157.75 12.484375 158.699219 13.050781 159.621094 13.664062 C 160.542969 14.277344 161.433594 14.9375 162.292969 15.636719 C 163.148438 16.339844 163.96875 17.078125 164.753906 17.863281 C 165.539062 18.644531 166.285156 19.460938 166.988281 20.316406 C 167.695312 21.171875 168.355469 22.058594 168.972656 22.980469 C 169.589844 23.898438 170.164062 24.847656 170.6875 25.824219 C 171.210938 26.800781 171.6875 27.800781 172.113281 28.820312 C 172.539062 29.84375 172.914062 30.886719 173.238281 31.945312 C 173.5625 33.007812 173.835938 34.078125 174.054688 35.164062 C 174.273438 36.25 174.4375 37.347656 174.550781 38.449219 C 174.660156 39.550781 174.71875 40.65625 174.722656 41.765625 C 174.722656 42.875 174.671875 43.984375 174.566406 45.089844 C 174.460938 46.191406 174.300781 47.289062 174.085938 48.378906 C 173.871094 49.46875 173.605469 50.542969 173.285156 51.605469 C 172.96875 52.671875 172.597656 53.714844 172.175781 54.742188 C 171.75 55.765625 171.28125 56.769531 170.757812 57.75 C 170.238281 58.730469 169.671875 59.683594 169.054688 60.605469 C 168.441406 61.53125 167.785156 62.421875 167.082031 63.28125 C 166.378906 64.140625 165.636719 64.964844 164.855469 65.75 C 164.070312 66.535156 163.25 67.28125 162.394531 67.988281 C 161.539062 68.695312 160.648438 69.355469 159.726562 69.972656 C 158.804688 70.589844 157.855469 71.164062 156.878906 71.6875 C 155.902344 72.210938 154.902344 72.6875 153.875 73.113281 C 152.851562 73.539062 151.808594 73.914062 150.75 74.238281 C 149.6875 74.5625 148.613281 74.832031 147.523438 75.050781 C 146.4375 75.269531 145.339844 75.429688 144.238281 75.542969 C 143.132812 75.652344 142.027344 75.707031 140.917969 75.707031 Z M 140.917969 75.707031 " fill-opacity="1" fill-rule="nonzero"/><path fill="white" d="M 229.957031 138.949219 L 224.605469 138.949219 C 225.394531 138.480469 226.15625 137.964844 226.890625 137.410156 C 227.625 136.855469 228.324219 136.261719 228.996094 135.628906 C 229.664062 135 230.296875 134.332031 230.894531 133.632812 C 231.492188 132.933594 232.046875 132.203125 232.566406 131.441406 C 233.082031 130.679688 233.558594 129.894531 233.992188 129.082031 C 234.421875 128.269531 234.808594 127.4375 235.152344 126.582031 C 235.492188 125.730469 235.789062 124.859375 236.035156 123.972656 C 236.285156 123.085938 236.484375 122.1875 236.632812 121.28125 C 236.78125 120.375 236.882812 119.460938 236.933594 118.542969 C 236.984375 117.621094 236.988281 116.703125 236.9375 115.785156 C 236.890625 114.867188 236.792969 113.953125 236.644531 113.042969 C 236.496094 112.136719 236.300781 111.238281 236.054688 110.351562 C 235.8125 109.464844 235.519531 108.59375 235.179688 107.738281 C 234.839844 106.882812 234.457031 106.046875 234.027344 105.234375 C 233.597656 104.421875 233.125 103.632812 232.609375 102.871094 C 232.09375 102.109375 231.539062 101.378906 230.941406 100.675781 C 230.347656 99.972656 229.714844 99.304688 229.050781 98.671875 C 228.382812 98.039062 227.683594 97.445312 226.949219 96.886719 C 226.21875 96.328125 225.460938 95.8125 224.671875 95.339844 C 223.882812 94.863281 223.074219 94.433594 222.238281 94.046875 C 221.402344 93.660156 220.550781 93.320312 219.679688 93.023438 C 218.808594 92.730469 217.921875 92.484375 217.023438 92.285156 C 216.125 92.089844 215.222656 91.941406 214.304688 91.839844 C 213.390625 91.742188 212.476562 91.691406 211.554688 91.691406 C 210.636719 91.691406 209.71875 91.742188 208.804688 91.839844 C 207.890625 91.941406 206.984375 92.089844 206.085938 92.285156 C 205.1875 92.484375 204.304688 92.730469 203.433594 93.023438 C 202.5625 93.320312 201.707031 93.660156 200.875 94.046875 C 200.039062 94.433594 199.226562 94.863281 198.441406 95.339844 C 197.652344 95.8125 196.890625 96.328125 196.160156 96.886719 C 195.429688 97.445312 194.730469 98.039062 194.0625 98.671875 C 193.394531 99.304688 192.765625 99.972656 192.167969 100.675781 C 191.574219 101.378906 191.019531 102.109375 190.503906 102.871094 C 189.988281 103.632812 189.515625 104.421875 189.085938 105.234375 C 188.65625 106.046875 188.269531 106.882812 187.933594 107.738281 C 187.59375 108.59375 187.300781 109.464844 187.054688 110.351562 C 186.808594 111.238281 186.613281 112.136719 186.464844 113.042969 C 186.320312 113.953125 186.21875 114.867188 186.171875 115.785156 C 186.125 116.703125 186.125 117.621094 186.175781 118.542969 C 186.226562 119.460938 186.328125 120.375 186.476562 121.28125 C 186.628906 122.1875 186.828125 123.085938 187.074219 123.972656 C 187.324219 124.859375 187.617188 125.730469 187.960938 126.582031 C 188.300781 127.4375 188.6875 128.269531 189.121094 129.082031 C 189.554688 129.894531 190.027344 130.679688 190.546875 131.441406 C 191.0625 132.203125 191.621094 132.933594 192.21875 133.632812 C 192.816406 134.332031 193.449219 135 194.117188 135.628906 C 194.785156 136.261719 195.488281 136.855469 196.21875 137.410156 C 196.953125 137.964844 197.714844 138.480469 198.503906 138.949219 L 193.152344 138.949219 C 192.695312 138.953125 192.246094 139 191.796875 139.089844 C 191.351562 139.179688 190.914062 139.308594 190.492188 139.484375 C 190.070312 139.660156 189.671875 139.871094 189.289062 140.125 C 188.910156 140.375 188.554688 140.664062 188.230469 140.984375 C 187.90625 141.304688 187.617188 141.652344 187.359375 142.03125 C 187.101562 142.410156 186.882812 142.808594 186.703125 143.226562 C 186.523438 143.648438 186.386719 144.082031 186.292969 144.527344 C 186.195312 144.972656 186.144531 145.425781 186.136719 145.882812 L 186.136719 188.6875 C 186.136719 189.152344 186.183594 189.609375 186.273438 190.0625 C 186.363281 190.511719 186.496094 190.953125 186.671875 191.378906 C 186.847656 191.808594 187.0625 192.210938 187.316406 192.597656 C 187.574219 192.980469 187.863281 193.335938 188.191406 193.664062 C 188.515625 193.992188 188.871094 194.285156 189.253906 194.539062 C 189.636719 194.796875 190.039062 195.015625 190.464844 195.195312 C 190.890625 195.371094 191.332031 195.507812 191.78125 195.597656 C 192.234375 195.691406 192.691406 195.738281 193.152344 195.738281 C 193.300781 195.738281 193.4375 195.765625 193.574219 195.824219 C 193.707031 195.878906 193.828125 195.957031 193.929688 196.0625 C 194.035156 196.164062 194.113281 196.285156 194.167969 196.417969 C 194.226562 196.554688 194.253906 196.695312 194.253906 196.839844 L 194.253906 233.519531 C 194.253906 233.980469 194.300781 234.4375 194.394531 234.890625 C 194.484375 235.34375 194.621094 235.78125 194.796875 236.207031 C 194.976562 236.632812 195.195312 237.039062 195.449219 237.421875 C 195.707031 237.804688 196 238.160156 196.328125 238.484375 C 196.652344 238.808594 197.007812 239.101562 197.394531 239.355469 C 197.777344 239.613281 198.183594 239.828125 198.609375 240.003906 C 199.035156 240.179688 199.476562 240.316406 199.929688 240.40625 C 200.378906 240.496094 200.835938 240.539062 201.300781 240.539062 L 221.84375 240.539062 C 222.304688 240.539062 222.757812 240.492188 223.210938 240.402344 C 223.664062 240.3125 224.101562 240.179688 224.527344 240.003906 C 224.953125 239.828125 225.355469 239.613281 225.738281 239.355469 C 226.125 239.101562 226.476562 238.808594 226.804688 238.484375 C 227.128906 238.15625 227.421875 237.800781 227.675781 237.417969 C 227.933594 237.035156 228.148438 236.632812 228.324219 236.207031 C 228.5 235.78125 228.632812 235.339844 228.722656 234.886719 C 228.8125 234.4375 228.859375 233.980469 228.859375 233.519531 L 228.859375 196.839844 C 228.867188 196.539062 228.976562 196.28125 229.1875 196.070312 C 229.402344 195.855469 229.65625 195.746094 229.957031 195.738281 C 230.421875 195.738281 230.878906 195.695312 231.332031 195.605469 C 231.785156 195.511719 232.226562 195.378906 232.65625 195.203125 C 233.082031 195.023438 233.488281 194.808594 233.871094 194.550781 C 234.257812 194.292969 234.613281 194 234.941406 193.675781 C 235.269531 193.347656 235.558594 192.992188 235.816406 192.605469 C 236.074219 192.222656 236.289062 191.816406 236.46875 191.386719 C 236.644531 190.960938 236.777344 190.519531 236.867188 190.0625 C 236.960938 189.609375 237.003906 189.152344 237.003906 188.6875 L 237.003906 145.882812 C 236.996094 145.425781 236.945312 144.972656 236.847656 144.523438 C 236.753906 144.074219 236.613281 143.640625 236.433594 143.222656 C 236.253906 142.800781 236.035156 142.402344 235.777344 142.023438 C 235.519531 141.644531 235.226562 141.292969 234.898438 140.972656 C 234.574219 140.652344 234.21875 140.367188 233.835938 140.113281 C 233.453125 139.863281 233.050781 139.648438 232.628906 139.476562 C 232.203125 139.300781 231.769531 139.171875 231.320312 139.082031 C 230.871094 138.996094 230.417969 138.949219 229.957031 138.949219 Z M 192.082031 117.144531 C 192.082031 116.507812 192.113281 115.867188 192.175781 115.230469 C 192.234375 114.59375 192.328125 113.964844 192.453125 113.335938 C 192.574219 112.707031 192.730469 112.089844 192.914062 111.476562 C 193.101562 110.863281 193.3125 110.261719 193.558594 109.671875 C 193.800781 109.082031 194.074219 108.503906 194.375 107.9375 C 194.675781 107.375 195.003906 106.824219 195.355469 106.292969 C 195.710938 105.761719 196.089844 105.246094 196.496094 104.753906 C 196.902344 104.257812 197.328125 103.785156 197.78125 103.332031 C 198.234375 102.878906 198.707031 102.449219 199.199219 102.042969 C 199.691406 101.636719 200.203125 101.257812 200.734375 100.898438 C 201.265625 100.542969 201.8125 100.214844 202.378906 99.914062 C 202.941406 99.613281 203.519531 99.339844 204.109375 99.09375 C 204.699219 98.847656 205.300781 98.632812 205.910156 98.445312 C 206.523438 98.261719 207.140625 98.105469 207.769531 97.980469 C 208.394531 97.855469 209.027344 97.761719 209.664062 97.695312 C 210.296875 97.632812 210.9375 97.601562 211.574219 97.601562 C 212.214844 97.601562 212.851562 97.632812 213.488281 97.695312 C 214.125 97.757812 214.757812 97.851562 215.382812 97.976562 C 216.011719 98.101562 216.628906 98.253906 217.242188 98.441406 C 217.851562 98.625 218.453125 98.839844 219.042969 99.085938 C 219.636719 99.328125 220.210938 99.601562 220.777344 99.90625 C 221.339844 100.207031 221.886719 100.535156 222.417969 100.890625 C 222.949219 101.246094 223.460938 101.625 223.957031 102.03125 C 224.449219 102.4375 224.925781 102.867188 225.375 103.316406 C 225.828125 103.769531 226.257812 104.242188 226.660156 104.738281 C 227.066406 105.230469 227.449219 105.746094 227.800781 106.277344 C 228.15625 106.808594 228.484375 107.355469 228.785156 107.921875 C 229.089844 108.484375 229.359375 109.0625 229.605469 109.652344 C 229.851562 110.242188 230.066406 110.84375 230.25 111.457031 C 230.433594 112.070312 230.589844 112.6875 230.714844 113.316406 C 230.839844 113.945312 230.933594 114.574219 230.996094 115.210938 C 231.058594 115.847656 231.089844 116.488281 231.089844 117.125 C 231.085938 117.765625 231.054688 118.402344 230.992188 119.039062 C 230.929688 119.675781 230.835938 120.308594 230.710938 120.933594 C 230.585938 121.5625 230.429688 122.183594 230.246094 122.792969 C 230.058594 123.40625 229.84375 124.007812 229.597656 124.597656 C 229.351562 125.1875 229.078125 125.765625 228.777344 126.328125 C 228.476562 126.894531 228.148438 127.441406 227.792969 127.972656 C 227.4375 128.503906 227.054688 129.015625 226.648438 129.511719 C 226.242188 130.003906 225.8125 130.476562 225.363281 130.929688 C 224.910156 131.382812 224.4375 131.808594 223.941406 132.214844 C 223.445312 132.621094 222.933594 133 222.402344 133.355469 C 221.871094 133.710938 221.320312 134.035156 220.757812 134.335938 C 220.195312 134.636719 219.617188 134.910156 219.027344 135.15625 C 218.433594 135.398438 217.832031 135.613281 217.222656 135.796875 C 216.609375 135.984375 215.992188 136.136719 215.363281 136.261719 C 214.738281 136.386719 214.105469 136.476562 213.46875 136.539062 C 212.832031 136.601562 212.195312 136.632812 211.554688 136.628906 C 210.917969 136.628906 210.28125 136.597656 209.648438 136.535156 C 209.011719 136.472656 208.382812 136.375 207.757812 136.25 C 207.132812 136.125 206.515625 135.972656 205.90625 135.785156 C 205.296875 135.597656 204.695312 135.382812 204.109375 135.140625 C 203.519531 134.894531 202.945312 134.621094 202.382812 134.320312 C 201.820312 134.019531 201.273438 133.691406 200.746094 133.335938 C 200.214844 132.984375 199.703125 132.605469 199.210938 132.199219 C 198.71875 131.792969 198.246094 131.367188 197.796875 130.914062 C 197.34375 130.464844 196.917969 129.992188 196.511719 129.5 C 196.109375 129.007812 195.726562 128.496094 195.375 127.964844 C 195.019531 127.433594 194.691406 126.886719 194.390625 126.324219 C 194.089844 125.761719 193.816406 125.1875 193.574219 124.597656 C 193.328125 124.007812 193.113281 123.410156 192.929688 122.796875 C 192.742188 122.1875 192.585938 121.570312 192.460938 120.945312 C 192.335938 120.320312 192.242188 119.691406 192.179688 119.054688 C 192.117188 118.421875 192.082031 117.785156 192.082031 117.144531 Z M 231.058594 188.539062 C 231.058594 188.6875 231.03125 188.828125 230.976562 188.960938 C 230.917969 189.097656 230.839844 189.214844 230.734375 189.320312 C 230.632812 189.421875 230.515625 189.5 230.378906 189.558594 C 230.246094 189.613281 230.105469 189.640625 229.957031 189.640625 C 229.496094 189.644531 229.039062 189.691406 228.585938 189.78125 C 228.132812 189.871094 227.691406 190.007812 227.265625 190.183594 C 226.839844 190.363281 226.433594 190.582031 226.050781 190.839844 C 225.667969 191.09375 225.3125 191.386719 224.984375 191.714844 C 224.65625 192.042969 224.367188 192.398438 224.109375 192.78125 C 223.851562 193.164062 223.632812 193.570312 223.457031 193.996094 C 223.277344 194.425781 223.144531 194.863281 223.050781 195.316406 C 222.960938 195.769531 222.914062 196.230469 222.914062 196.691406 L 222.914062 233.519531 C 222.914062 233.660156 222.886719 233.796875 222.832031 233.929688 C 222.777344 234.058594 222.699219 234.175781 222.597656 234.277344 C 222.5 234.375 222.382812 234.453125 222.25 234.507812 C 222.121094 234.5625 221.984375 234.589844 221.84375 234.589844 L 201.300781 234.589844 C 201.15625 234.589844 201.019531 234.5625 200.886719 234.507812 C 200.753906 234.453125 200.632812 234.378906 200.53125 234.277344 C 200.429688 234.179688 200.347656 234.0625 200.292969 233.929688 C 200.234375 233.800781 200.203125 233.660156 200.199219 233.519531 L 200.199219 196.839844 C 200.199219 196.375 200.152344 195.917969 200.0625 195.464844 C 199.972656 195.011719 199.839844 194.570312 199.664062 194.140625 C 199.484375 193.714844 199.269531 193.308594 199.011719 192.921875 C 198.753906 192.539062 198.460938 192.183594 198.136719 191.855469 C 197.808594 191.527344 197.453125 191.234375 197.066406 190.976562 C 196.683594 190.71875 196.277344 190.503906 195.847656 190.328125 C 195.421875 190.148438 194.980469 190.015625 194.527344 189.925781 C 194.074219 189.835938 193.617188 189.789062 193.152344 189.789062 C 193.007812 189.789062 192.871094 189.761719 192.738281 189.707031 C 192.601562 189.648438 192.488281 189.570312 192.386719 189.464844 C 192.285156 189.363281 192.207031 189.242188 192.15625 189.109375 C 192.101562 188.972656 192.078125 188.832031 192.082031 188.6875 L 192.082031 145.882812 C 192.078125 145.738281 192.101562 145.597656 192.15625 145.464844 C 192.207031 145.328125 192.285156 145.210938 192.386719 145.105469 C 192.488281 145.003906 192.601562 144.921875 192.738281 144.867188 C 192.871094 144.808594 193.007812 144.78125 193.152344 144.78125 L 229.957031 144.78125 C 230.105469 144.78125 230.246094 144.808594 230.378906 144.867188 C 230.515625 144.921875 230.632812 145 230.734375 145.105469 C 230.839844 145.207031 230.917969 145.324219 230.972656 145.460938 C 231.03125 145.597656 231.058594 145.734375 231.058594 145.882812 Z M 231.058594 188.539062 " fill-opacity="1" fill-rule="nonzero"/><path fill="white" d="M 134.109375 182.234375 L 134.109375 163.730469 C 134.109375 163.207031 134.058594 162.6875 133.957031 162.175781 C 133.855469 161.660156 133.703125 161.164062 133.503906 160.679688 C 133.304688 160.195312 133.058594 159.738281 132.765625 159.300781 C 132.476562 158.867188 132.144531 158.464844 131.777344 158.09375 C 131.40625 157.722656 131.003906 157.394531 130.570312 157.101562 C 130.132812 156.8125 129.675781 156.566406 129.191406 156.367188 C 128.707031 156.164062 128.210938 156.015625 127.695312 155.910156 C 127.183594 155.808594 126.664062 155.757812 126.140625 155.757812 L 102.359375 155.757812 C 102.085938 155.757812 101.824219 155.707031 101.574219 155.601562 C 101.324219 155.496094 101.101562 155.351562 100.910156 155.15625 C 100.714844 154.964844 100.566406 154.742188 100.464844 154.492188 C 100.359375 154.238281 100.308594 153.976562 100.308594 153.707031 L 100.308594 130.144531 C 100.3125 129.625 100.265625 129.109375 100.167969 128.597656 C 100.070312 128.085938 99.925781 127.589844 99.734375 127.105469 C 99.539062 126.621094 99.300781 126.164062 99.019531 125.726562 C 98.734375 125.289062 98.410156 124.886719 98.050781 124.511719 C 97.6875 124.136719 97.292969 123.804688 96.863281 123.507812 C 96.4375 123.210938 95.984375 122.957031 95.507812 122.75 C 95.03125 122.542969 94.539062 122.382812 94.03125 122.269531 C 93.523438 122.15625 93.007812 122.097656 92.488281 122.085938 L 74.085938 122.085938 C 73.5625 122.09375 73.046875 122.148438 72.535156 122.257812 C 72.019531 122.367188 71.523438 122.527344 71.042969 122.730469 C 70.5625 122.9375 70.105469 123.1875 69.675781 123.484375 C 69.242188 123.78125 68.84375 124.113281 68.476562 124.488281 C 68.109375 124.863281 67.78125 125.269531 67.496094 125.707031 C 67.207031 126.144531 66.964844 126.605469 66.769531 127.089844 C 66.570312 127.574219 66.421875 128.074219 66.324219 128.589844 C 66.226562 129.101562 66.175781 129.621094 66.179688 130.144531 L 66.179688 153.796875 C 66.179688 154.066406 66.125 154.324219 66.023438 154.574219 C 65.921875 154.824219 65.777344 155.042969 65.585938 155.234375 C 65.398438 155.429688 65.179688 155.578125 64.933594 155.683594 C 64.683594 155.789062 64.425781 155.84375 64.15625 155.847656 L 40.433594 155.847656 C 39.910156 155.84375 39.394531 155.894531 38.882812 155.992188 C 38.375 156.09375 37.875 156.242188 37.394531 156.4375 C 36.914062 156.632812 36.453125 156.875 36.019531 157.164062 C 35.585938 157.449219 35.179688 157.773438 34.808594 158.140625 C 34.4375 158.507812 34.109375 158.90625 33.816406 159.335938 C 33.523438 159.765625 33.273438 160.222656 33.070312 160.699219 C 32.867188 161.179688 32.710938 161.675781 32.605469 162.183594 C 32.496094 162.695312 32.441406 163.210938 32.433594 163.730469 L 32.433594 182.144531 C 32.433594 182.671875 32.484375 183.191406 32.589844 183.707031 C 32.691406 184.222656 32.84375 184.722656 33.042969 185.207031 C 33.246094 185.691406 33.492188 186.152344 33.78125 186.589844 C 34.074219 187.027344 34.40625 187.429688 34.777344 187.804688 C 35.148438 188.175781 35.550781 188.507812 35.988281 188.796875 C 36.425781 189.089844 36.886719 189.335938 37.371094 189.539062 C 37.855469 189.738281 38.355469 189.890625 38.871094 189.992188 C 39.386719 190.09375 39.90625 190.148438 40.433594 190.148438 L 64.214844 190.148438 C 64.484375 190.148438 64.742188 190.199219 64.988281 190.300781 C 65.238281 190.402344 65.457031 190.550781 65.644531 190.738281 C 65.835938 190.929688 65.980469 191.148438 66.082031 191.394531 C 66.1875 191.644531 66.238281 191.902344 66.238281 192.167969 L 66.238281 215.96875 C 66.238281 216.492188 66.292969 217.011719 66.394531 217.527344 C 66.5 218.042969 66.652344 218.539062 66.855469 219.023438 C 67.054688 219.511719 67.300781 219.96875 67.59375 220.40625 C 67.886719 220.84375 68.21875 221.246094 68.589844 221.617188 C 68.960938 221.988281 69.363281 222.320312 69.796875 222.613281 C 70.234375 222.902344 70.695312 223.152344 71.179688 223.351562 C 71.664062 223.554688 72.164062 223.707031 72.675781 223.8125 C 73.191406 223.914062 73.710938 223.96875 74.234375 223.96875 L 92.636719 223.96875 C 93.160156 223.96875 93.679688 223.914062 94.191406 223.8125 C 94.707031 223.707031 95.207031 223.554688 95.6875 223.351562 C 96.171875 223.148438 96.632812 222.902344 97.066406 222.609375 C 97.5 222.320312 97.902344 221.988281 98.273438 221.617188 C 98.644531 221.242188 98.972656 220.839844 99.261719 220.402344 C 99.554688 219.96875 99.800781 219.507812 100 219.023438 C 100.199219 218.539062 100.351562 218.039062 100.453125 217.523438 C 100.554688 217.011719 100.605469 216.492188 100.605469 215.96875 L 100.605469 192.167969 C 100.605469 191.898438 100.65625 191.636719 100.761719 191.386719 C 100.867188 191.136719 101.015625 190.917969 101.207031 190.726562 C 101.398438 190.539062 101.621094 190.394531 101.875 190.292969 C 102.125 190.191406 102.386719 190.144531 102.65625 190.148438 L 126.441406 190.148438 C 126.949219 190.125 127.449219 190.058594 127.941406 189.941406 C 128.4375 189.824219 128.917969 189.664062 129.378906 189.457031 C 129.84375 189.246094 130.285156 189 130.699219 188.707031 C 131.117188 188.414062 131.5 188.085938 131.855469 187.722656 C 132.207031 187.359375 132.523438 186.960938 132.800781 186.539062 C 133.082031 186.113281 133.316406 185.664062 133.507812 185.195312 C 133.703125 184.726562 133.851562 184.242188 133.949219 183.742188 C 134.050781 183.246094 134.105469 182.742188 134.109375 182.234375 Z M 128.164062 182.234375 C 128.167969 182.503906 128.121094 182.765625 128.019531 183.015625 C 127.917969 183.269531 127.773438 183.492188 127.582031 183.683594 C 127.394531 183.875 127.171875 184.023438 126.921875 184.128906 C 126.671875 184.234375 126.414062 184.285156 126.140625 184.285156 L 102.359375 184.285156 C 101.835938 184.285156 101.316406 184.335938 100.800781 184.4375 C 100.289062 184.542969 99.789062 184.691406 99.304688 184.894531 C 98.820312 185.09375 98.359375 185.339844 97.925781 185.628906 C 97.488281 185.917969 97.085938 186.25 96.714844 186.621094 C 96.34375 186.988281 96.011719 187.390625 95.71875 187.828125 C 95.425781 188.261719 95.179688 188.722656 94.980469 189.207031 C 94.777344 189.6875 94.625 190.1875 94.519531 190.703125 C 94.417969 191.214844 94.363281 191.734375 94.363281 192.257812 L 94.363281 216.058594 C 94.363281 216.328125 94.308594 216.585938 94.207031 216.835938 C 94.105469 217.085938 93.960938 217.304688 93.769531 217.496094 C 93.582031 217.691406 93.363281 217.839844 93.117188 217.945312 C 92.867188 218.050781 92.609375 218.105469 92.339844 218.109375 L 74.085938 218.109375 C 73.8125 218.109375 73.550781 218.058594 73.300781 217.953125 C 73.050781 217.847656 72.828125 217.699219 72.636719 217.507812 C 72.441406 217.316406 72.292969 217.09375 72.191406 216.84375 C 72.085938 216.589844 72.035156 216.328125 72.035156 216.058594 L 72.035156 192.257812 C 72.035156 191.734375 71.984375 191.21875 71.882812 190.703125 C 71.78125 190.191406 71.628906 189.691406 71.429688 189.207031 C 71.226562 188.722656 70.984375 188.265625 70.691406 187.828125 C 70.402344 187.394531 70.070312 186.992188 69.699219 186.621094 C 69.332031 186.25 68.929688 185.921875 68.492188 185.628906 C 68.058594 185.339844 67.597656 185.09375 67.117188 184.894531 C 66.632812 184.691406 66.132812 184.542969 65.621094 184.441406 C 65.109375 184.335938 64.589844 184.285156 64.066406 184.285156 L 40.433594 184.285156 C 40.160156 184.285156 39.898438 184.234375 39.648438 184.128906 C 39.394531 184.027344 39.175781 183.878906 38.980469 183.683594 C 38.789062 183.492188 38.640625 183.269531 38.535156 183.019531 C 38.433594 182.769531 38.378906 182.507812 38.378906 182.234375 L 38.378906 163.730469 C 38.378906 163.460938 38.433594 163.199219 38.539062 162.949219 C 38.640625 162.699219 38.789062 162.480469 38.984375 162.289062 C 39.175781 162.101562 39.398438 161.953125 39.648438 161.851562 C 39.902344 161.753906 40.160156 161.703125 40.433594 161.707031 L 64.214844 161.707031 C 64.734375 161.703125 65.246094 161.648438 65.753906 161.542969 C 66.257812 161.4375 66.75 161.28125 67.226562 161.082031 C 67.707031 160.882812 68.160156 160.636719 68.589844 160.347656 C 69.019531 160.058594 69.414062 159.730469 69.78125 159.363281 C 70.148438 159 70.476562 158.601562 70.765625 158.171875 C 71.054688 157.742188 71.296875 157.285156 71.5 156.808594 C 71.699219 156.332031 71.851562 155.839844 71.957031 155.332031 C 72.0625 154.824219 72.117188 154.3125 72.125 153.796875 L 72.125 130.144531 C 72.125 129.875 72.175781 129.613281 72.28125 129.359375 C 72.382812 129.109375 72.53125 128.886719 72.726562 128.695312 C 72.917969 128.5 73.140625 128.355469 73.390625 128.25 C 73.640625 128.144531 73.902344 128.09375 74.175781 128.09375 L 92.578125 128.09375 C 92.847656 128.097656 93.105469 128.152344 93.355469 128.257812 C 93.601562 128.363281 93.820312 128.511719 94.007812 128.703125 C 94.199219 128.898438 94.34375 129.117188 94.445312 129.367188 C 94.546875 129.617188 94.597656 129.875 94.597656 130.144531 L 94.597656 153.796875 C 94.601562 154.320312 94.652344 154.839844 94.757812 155.355469 C 94.863281 155.867188 95.015625 156.367188 95.214844 156.851562 C 95.417969 157.335938 95.664062 157.796875 95.957031 158.234375 C 96.25 158.671875 96.578125 159.074219 96.949219 159.445312 C 97.320312 159.816406 97.726562 160.148438 98.160156 160.441406 C 98.597656 160.730469 99.054688 160.976562 99.539062 161.179688 C 100.023438 161.382812 100.523438 161.535156 101.039062 161.636719 C 101.554688 161.742188 102.070312 161.796875 102.597656 161.796875 L 126.378906 161.796875 C 126.648438 161.792969 126.910156 161.839844 127.160156 161.941406 C 127.410156 162.042969 127.628906 162.191406 127.820312 162.378906 C 128.007812 162.570312 128.15625 162.792969 128.257812 163.042969 C 128.359375 163.289062 128.40625 163.550781 128.402344 163.820312 Z M 128.164062 182.234375 " fill-opacity="1" fill-rule="nonzero"/>

</svg>