<svg xmlns="http://www.w3.org/2000/svg" xmlns:xlink="http://www.w3.org/1999/xlink" width="330" zoomAndPan="magnify" viewBox="0 0 247.5 247.500006" height="330" preserveAspectRatio="xMidYMid meet" version="1.0" style="&#10;"><defs><clipPath id="0a536e6982"><path d="M 0 0 L 247 0 L 247 247 L 0 247 Z M 0 0 " clip-rule="nonzero"/></clipPath><clipPath id="98d44084a7"><path d="M 132 105 L 217.089844 105 L 217.089844 208 L 132 208 Z M 132 105 " clip-rule="nonzero"/></clipPath><clipPath id="6409de9cfb"><path d="M 30.339844 185 L 62 185 L 62 217.089844 L 30.339844 217.089844 Z M 30.339844 185 " clip-rule="nonzero"/></clipPath><clipPath id="d77bfe12a4"><path d="M 185 30.339844 L 217.089844 30.339844 L 217.089844 62 L 185 62 Z M 185 30.339844 " clip-rule="nonzero"/></clipPath></defs><path fill="#000000" d="M 89.476562 142.390625 L 105.039062 142.390625 L 105.039062 157.953125 C 105.039062 159.671875 106.433594 161.0625 108.152344 161.0625 L 139.277344 161.0625 C 140.996094 161.0625 142.390625 159.671875 142.390625 157.953125 L 142.390625 142.390625 L 157.953125 142.390625 C 159.667969 142.390625 161.0625 140.996094 161.0625 139.277344 L 161.0625 108.152344 C 161.0625 106.429688 159.667969 105.039062 157.953125 105.039062 L 142.390625 105.039062 L 142.390625 89.476562 C 142.390625 87.753906 140.996094 86.363281 139.277344 86.363281 L 108.152344 86.363281 C 106.433594 86.363281 105.039062 87.753906 105.039062 89.476562 L 105.039062 105.039062 L 89.476562 105.039062 C 87.757812 105.039062 86.363281 106.429688 86.363281 108.152344 L 86.363281 139.277344 C 86.363281 140.996094 87.757812 142.390625 89.476562 142.390625 Z M 92.589844 111.265625 L 108.152344 111.265625 C 109.871094 111.265625 111.265625 109.871094 111.265625 108.152344 L 111.265625 92.589844 L 136.164062 92.589844 L 136.164062 108.152344 C 136.164062 109.871094 137.558594 111.265625 139.277344 111.265625 L 154.839844 111.265625 L 154.839844 136.164062 L 139.277344 136.164062 C 137.558594 136.164062 136.164062 137.554688 136.164062 139.277344 L 136.164062 154.839844 L 111.265625 154.839844 L 111.265625 139.277344 C 111.265625 137.554688 109.871094 136.164062 108.152344 136.164062 L 92.589844 136.164062 Z M 92.589844 111.265625 " fill-opacity="1" fill-rule="nonzero" style="&#10;    fill: white;&#10;"/><path fill="#000000" d="M 64.578125 123.714844 C 64.578125 156.324219 91.105469 182.851562 123.714844 182.851562 C 156.324219 182.851562 182.851562 156.324219 182.851562 123.714844 C 182.851562 91.105469 156.324219 64.578125 123.714844 64.578125 C 91.105469 64.578125 64.578125 91.105469 64.578125 123.714844 Z M 123.714844 70.800781 C 152.890625 70.800781 176.625 94.539062 176.625 123.714844 C 176.625 152.890625 152.890625 176.625 123.714844 176.625 C 94.539062 176.625 70.800781 152.890625 70.800781 123.714844 C 70.800781 94.539062 94.539062 70.800781 123.714844 70.800781 Z M 123.714844 70.800781 " fill-opacity="1" fill-rule="nonzero" style="&#10;    fill: white;&#10;"/><path fill="#000000" d="M 133.40625 40.230469 L 132.691406 46.410156 C 150.582031 48.46875 167.332031 56.789062 179.859375 69.84375 L 184.351562 65.53125 C 170.824219 51.433594 152.730469 42.449219 133.40625 40.230469 Z M 133.40625 40.230469 " fill-opacity="1" fill-rule="nonzero" style="&#10;    fill: white;&#10;"/><path fill="#000000" d="M 126.707031 45.957031 L 126.945312 39.738281 C 124.804688 39.65625 122.625 39.65625 120.484375 39.738281 L 120.71875 45.957031 C 122.707031 45.882812 124.722656 45.882812 126.707031 45.957031 Z M 126.707031 45.957031 " fill-opacity="1" fill-rule="nonzero" style="&#10;    fill: white;&#10;"/><path fill="#000000" d="M 45.902344 123.714844 C 45.902344 84.152344 75.492188 50.917969 114.730469 46.410156 L 114.019531 40.230469 C 71.636719 45.097656 39.675781 80.988281 39.675781 123.714844 C 39.675781 166.4375 71.636719 202.328125 114.019531 207.195312 L 114.734375 201.015625 C 75.492188 196.507812 45.902344 163.273438 45.902344 123.714844 Z M 45.902344 123.714844 " fill-opacity="1" fill-rule="nonzero" style="&#10;    fill: white;&#10;"/><path fill="#000000" d="M 120.71875 201.46875 L 120.484375 207.6875 C 121.554688 207.734375 122.628906 207.75 123.714844 207.75 C 124.796875 207.75 125.875 207.734375 126.945312 207.6875 L 126.707031 201.46875 C 124.722656 201.542969 122.707031 201.542969 120.71875 201.46875 Z M 120.71875 201.46875 " fill-opacity="1" fill-rule="nonzero" style="&#10;    fill: white;&#10;"/><g clip-path="url(#98d44084a7)"><path fill="#000000" d="M 207.304688 106.546875 C 206.183594 104.675781 203.089844 104.675781 201.96875 106.546875 L 192.628906 122.109375 C 192.050781 123.074219 192.039062 124.269531 192.589844 125.25 C 193.144531 126.226562 194.179688 126.828125 195.300781 126.828125 L 201.378906 126.828125 C 199.867188 164.996094 170.894531 196.628906 132.691406 201.015625 L 133.40625 207.195312 C 174.753906 202.449219 206.171875 168.167969 207.679688 126.828125 L 213.976562 126.828125 C 215.097656 126.828125 216.132812 126.226562 216.683594 125.25 C 217.238281 124.269531 217.222656 123.074219 216.644531 122.109375 Z M 200.796875 120.601562 L 204.640625 114.199219 L 208.480469 120.601562 Z M 200.796875 120.601562 " fill-opacity="1" fill-rule="nonzero" style="&#10;    fill: white;&#10;"/></g><g clip-path="url(#6409de9cfb)"><path fill="#000000" d="M 59.179688 198.527344 C 51.953125 196.527344 50.898438 195.476562 48.902344 188.246094 C 48.527344 186.902344 47.300781 185.964844 45.902344 185.964844 C 44.5 185.964844 43.273438 186.902344 42.902344 188.246094 C 40.90625 195.472656 39.851562 196.527344 32.625 198.527344 C 31.273438 198.898438 30.339844 200.125 30.339844 201.527344 C 30.339844 202.925781 31.273438 204.152344 32.625 204.527344 C 39.851562 206.523438 40.90625 207.578125 42.902344 214.808594 C 43.273438 216.152344 44.5 217.089844 45.902344 217.089844 C 47.300781 217.089844 48.527344 216.152344 48.902344 214.808594 C 50.898438 207.578125 51.953125 206.523438 59.179688 204.527344 C 60.53125 204.152344 61.464844 202.925781 61.464844 201.527344 C 61.464844 200.125 60.53125 198.898438 59.179688 198.527344 Z M 45.902344 205.566406 C 44.84375 203.871094 43.558594 202.585938 41.859375 201.527344 C 43.558594 200.464844 44.84375 199.183594 45.902344 197.484375 C 46.960938 199.183594 48.246094 200.464844 49.941406 201.527344 C 48.246094 202.585938 46.960938 203.871094 45.902344 205.566406 Z M 45.902344 205.566406 " fill-opacity="1" fill-rule="nonzero" style="&#10;    fill: white;&#10;"/></g><g clip-path="url(#d77bfe12a4)"><path fill="#000000" d="M 214.804688 42.902344 C 207.578125 40.902344 206.523438 39.851562 204.527344 32.621094 C 204.152344 31.277344 202.925781 30.339844 201.527344 30.339844 C 200.125 30.339844 198.898438 31.277344 198.527344 32.621094 C 196.53125 39.847656 195.476562 40.902344 188.25 42.902344 C 186.898438 43.273438 185.964844 44.5 185.964844 45.902344 C 185.964844 47.300781 186.898438 48.527344 188.25 48.902344 C 195.476562 50.898438 196.53125 51.953125 198.527344 59.183594 C 198.898438 60.527344 200.125 61.464844 201.527344 61.464844 C 202.925781 61.464844 204.152344 60.527344 204.527344 59.183594 C 206.523438 51.953125 207.578125 50.898438 214.804688 48.902344 C 216.15625 48.527344 217.089844 47.300781 217.089844 45.902344 C 217.089844 44.5 216.15625 43.273438 214.804688 42.902344 Z M 201.527344 49.941406 C 200.46875 48.246094 199.183594 46.960938 197.484375 45.902344 C 199.183594 44.839844 200.46875 43.558594 201.527344 41.859375 C 202.585938 43.558594 203.871094 44.839844 205.566406 45.902344 C 203.871094 46.960938 202.585938 48.246094 201.527344 49.941406 Z M 201.527344 49.941406 " fill-opacity="1" fill-rule="nonzero" style="&#10;    fill: white;&#10;"/></g>

</svg>